<svg xmlns="http://www.w3.org/2000/svg" viewBox="0 0 720 540">
  <defs>
    <style>
      .cls-1 {
        fill: #f9f9f9;
      }

      .cls-2, .cls-3 {
        fill: #878787;
        stroke: #f9f9f9;
        stroke-linecap: round;
        stroke-linejoin: round;
        stroke-width: 0.25px;
      }

      .cls-2 {
        fill-rule: evenodd;
      }

      .cls-4 {
        font-size: 8px;
        fill: #333;
        font-family: Roboto-Light, Roboto;
        letter-spacing: 0.01em;
      }

      .cls-5 {
        letter-spacing: 0em;
      }

      .cls-6 {
        letter-spacing: 0.01em;
      }

      .cls-7 {
        letter-spacing: 0em;
      }

      .cls-8 {
        letter-spacing: 0em;
      }

      .cls-9 {
        letter-spacing: -0.01em;
      }

      .cls-10 {
        letter-spacing: 0em;
      }
    </style>
  </defs>
  <title>US-CA-EPS-01-0002</title>
  <g id="Background">
    <rect class="cls-1" width="720" height="540"/>
  </g>
  <g id="CA">
    <polygon id="Siskiyou" class="cls-2" points="295.85 127.24 265.19 127.28 264.42 126.45 264.4 126.03 264.89 122.74 265.53 122.01 264.67 121.17 264 121.05 263.58 120.11 262.75 120.03 262.38 121.6 260.84 121.83 260.5 123.04 258.74 123.68 258.23 124.69 257.07 125.39 256.38 126.45 255.5 126.43 254.87 126.75 253.84 126.62 252.55 127.48 251.53 127.53 251.62 129.17 251.32 130.96 252.67 131.92 253.25 133.53 253.02 134.59 252.58 134.77 251.11 133.92 249.58 134.3 248.42 132.4 246.76 131.51 244.97 131.69 243.68 131.46 241.57 128.89 240.68 128.75 240.03 128.19 239.31 128.4 238.34 127.5 237.29 125.82 237.4 123.84 236.97 123.35 237.14 122.61 236.45 121.72 236.42 120.56 235.84 119.75 231.17 119.68 231.6 118.8 231.57 117.89 232.36 116.52 232.29 115.79 231.53 114.72 231.24 113.54 230.29 112.79 230.21 111.44 229.38 111.41 229.6 110.2 230.44 109.28 230.38 108.3 230.74 107.49 230.73 106.09 230.23 104.64 230.48 103.53 229.84 102.16 230.89 101.37 231.44 99.7 232.6 99.76 232.94 99.18 233.58 99.21 234.03 98.86 234.77 96.92 234.74 95.76 235.13 95.17 243.68 95 271.19 95.06 295.94 95.31 295.9 97.27 295.65 97.33 295.57 104.31 295.89 104.31 295.85 127.24"/>
    <polygon id="Del_Norte" data-name="Del Norte" class="cls-2" points="231.17 119.68 227.75 119.65 227.74 116.21 219.15 116.4 216.61 105.84 213.71 103.89 214.76 101.07 214.79 95.18 226.16 95.36 235.13 95.17 234.74 95.76 234.77 96.92 234.03 98.86 233.58 99.21 232.94 99.18 232.6 99.76 231.44 99.7 230.89 101.37 229.84 102.16 230.48 103.53 230.23 104.64 230.73 106.09 230.74 107.49 230.38 108.3 230.44 109.28 229.6 110.2 229.38 111.41 230.21 111.44 230.29 112.79 231.24 113.54 231.53 114.72 232.29 115.79 232.36 116.52 231.57 117.89 231.6 118.8 231.17 119.68"/>
    <polygon id="Modoc" class="cls-2" points="299.33 127.31 295.85 127.24 295.89 104.31 295.57 104.31 295.65 97.33 295.9 97.27 295.94 95.31 312.66 95.57 338.44 95.51 338.36 127.36 299.33 127.31"/>
    <polygon id="Humboldt" class="cls-2" points="234.44 172.96 220.62 172.93 218.07 169.03 210.71 163.19 210.98 160.3 209.32 156.15 217.63 135.12 216.45 129.26 218.75 122.04 219.15 116.4 227.74 116.21 227.75 119.65 231.17 119.68 235.84 119.75 236.42 120.56 236.45 121.72 237.14 122.61 236.97 123.35 237.4 123.84 237.29 125.82 238.34 127.5 238 128.41 237.87 130.37 236.98 131.25 237.98 132.52 238.45 133.85 237.35 135.84 237.31 136.55 236.02 137.68 234.17 136.76 232.58 137.06 232.49 137.33 232.95 139.19 234.09 141.04 234.25 142.03 234 142.7 234.58 144.92 234.44 172.96"/>
    <polygon id="Trinity" class="cls-2" points="252.16 173.67 234.53 173.74 234.44 172.96 234.58 144.92 234 142.7 234.25 142.03 234.09 141.04 232.95 139.19 232.49 137.33 232.58 137.06 234.17 136.76 236.02 137.68 237.31 136.55 237.35 135.84 238.45 133.85 237.98 132.52 236.98 131.25 237.87 130.37 238 128.41 238.34 127.5 239.31 128.4 240.03 128.19 240.68 128.75 241.57 128.89 243.68 131.46 244.97 131.69 246.76 131.51 248.42 132.4 249.58 134.3 251.11 133.92 252.58 134.77 253.02 134.59 253.25 133.53 252.67 131.92 251.32 130.96 251.62 129.17 251.53 127.53 252.55 127.48 253.84 126.62 254.87 126.75 255.5 126.43 256.38 126.45 257.07 125.39 258.23 124.69 258.74 123.68 260.5 123.04 260.84 121.83 262.38 121.6 262.75 120.03 263.58 120.11 264 121.05 264.67 121.17 265.53 122.01 264.89 122.74 264.4 126.03 264.42 126.45 265.19 127.28 266.57 128.56 266.27 130.69 264.22 131.48 264.01 134.04 261.88 136.35 261.7 138.57 260.46 141.13 260.26 143.11 258.97 143.91 258.6 144.53 258.83 145.4 258.6 146.04 257.79 146.46 258.27 148.47 259.39 150.25 259.27 151.1 258.15 151.2 257.54 151.96 256.65 152.24 256.37 153.1 255.04 153.58 254.71 154.46 253.96 154.94 253.34 156.1 252.79 155.93 251.69 156.98 250.42 157.41 250.13 158.46 248.74 159.96 248.62 162.28 249.5 162.92 250.42 163.25 251.04 163.84 251.25 165.63 250.9 167.44 251.15 167.79 251.33 170.29 251.74 171.14 251.66 171.84 252.16 173.67"/>
    <polygon id="Shasta" class="cls-2" points="299.44 155.66 294.24 155.7 292.64 155.71 292.26 156.2 289.92 156.19 288.68 155.53 286.92 156.33 284.28 156.25 281.72 156.94 276.94 157.56 273.78 158.74 272.95 158.51 269.77 159.07 268.07 159.02 266.28 158.77 264.71 158.07 260.98 160.25 259.88 160.26 257.87 159.05 254.61 159.76 252.94 161.4 250.7 161.26 249.52 161.92 249.5 162.92 248.62 162.28 248.74 159.96 250.13 158.46 250.42 157.41 251.69 156.98 252.79 155.93 253.34 156.1 253.96 154.94 254.71 154.46 255.04 153.58 256.37 153.1 256.65 152.24 257.54 151.96 258.15 151.2 259.27 151.1 259.39 150.25 258.27 148.47 257.79 146.46 258.6 146.04 258.83 145.4 258.6 144.53 258.97 143.91 260.26 143.11 260.46 141.13 261.7 138.57 261.88 136.35 264.01 134.04 264.22 131.48 266.27 130.69 266.57 128.56 265.19 127.28 295.85 127.24 299.33 127.31 299.36 138.16 299.74 138.16 299.44 155.66"/>
    <polygon id="Lassen" class="cls-2" points="334.14 183.95 334.18 183.03 334.51 182.99 334.87 181.97 335.24 181.96 335.05 177.53 335.4 177.48 335.33 176.41 335.01 176.37 335.01 175.31 334.32 174.95 334.29 174.57 333.66 174.36 333.74 174.03 333.48 174.07 333.48 173.57 333.21 173.54 333.24 172.92 332.86 172.91 332.84 172.46 332.45 172.51 332.09 170.7 331.56 170.66 331.57 169.91 331.08 169.93 331.05 169.01 330.5 169.03 330.49 168.76 328.32 168.72 328.29 168.51 327.31 168.34 327.31 167.66 326.86 167.62 326.46 167.09 326.06 167.02 326.07 166.62 325.3 166.33 325.27 165.71 324.89 165.72 324.83 165.16 324.28 165.13 324.21 164.54 323.78 164.54 323.48 163.63 322.11 163.29 322.09 162.94 321.4 162.97 321.36 162.24 320.06 162.18 320.07 161.87 319.4 161.88 319.38 161.4 319.06 161.42 319.03 161.16 316.86 161.2 316.88 160.84 315.83 160.84 315.63 161.46 315.01 161.42 314.93 162.19 313.91 162.4 313.9 163.07 313.32 163.07 313.33 163.7 312.78 163.67 312.84 165.19 312.22 165.18 312.2 165.49 311.14 165.46 311.13 164.87 310.43 164.9 310.4 164.41 309.06 164.43 309.11 163.87 307.8 163.89 307.77 162.9 307.37 162.91 307.23 155.7 299.44 155.66 299.74 138.16 299.36 138.16 299.33 127.31 338.36 127.36 338.36 183.56 337.83 183.58 337.85 183.97 334.14 183.95"/>
    <polygon id="Tehama" class="cls-2" points="252.29 180.68 251.68 178.76 251.94 176.78 252.57 176.13 252.83 175.3 252.16 173.67 251.66 171.84 251.74 171.14 251.33 170.29 251.15 167.79 250.9 167.44 251.25 165.63 251.04 163.84 250.42 163.25 249.5 162.92 249.52 161.92 250.7 161.26 252.94 161.4 254.61 159.76 257.87 159.05 259.88 160.26 260.98 160.25 264.71 158.07 266.28 158.77 268.07 159.02 269.77 159.07 272.95 158.51 273.78 158.74 276.94 157.56 281.72 156.94 284.28 156.25 286.92 156.33 288.68 155.53 289.92 156.19 292.26 156.2 292.64 155.71 294.24 155.7 295.03 156.99 295.24 158.66 295.88 159.61 297.75 160.12 298.84 161.03 298.85 161.65 298.28 161.62 298.13 161.85 298.63 162.27 298.46 164.75 297.56 165.11 297.26 165.56 296.54 165.69 296.23 166.13 296.43 166.97 295.93 167.01 295.99 167.92 295.75 167.93 295.76 168.29 295.32 168.29 295.32 168.59 294.72 168.57 294.71 168.9 291.69 169.23 291.81 170.62 291.42 170.83 291.27 171.48 290.76 171.54 290.8 172.16 290.57 172.18 290.55 172.98 290.2 173.01 290.15 173.67 288.25 173.75 287.26 175.55 286.81 177.05 286.4 177.44 277.68 177.31 277.63 177.92 278.37 177.69 278.57 177.85 278.11 178.34 277.94 179.1 278.02 180.36 278.36 180.73 252.29 180.68"/>
    <polygon id="Plumas" class="cls-2" points="308.88 187.03 306.8 188.38 306.54 188.46 306.47 187.69 305.65 187.78 305.63 187.4 305.09 187.38 305.02 186.19 304.55 186.22 304.29 185.66 303.98 185.69 303.97 185.13 303.48 185.14 303.46 184.65 302.93 184.64 302.87 183.6 302.25 183.62 302.23 183.06 301.77 183.12 301.7 182.58 301.2 182.59 301.14 182.02 300.67 182.02 300.29 181.05 299.68 180.85 299.7 180.45 299.21 180.42 299.18 179.92 298.67 179.91 298.36 178.47 297.06 178.23 297 176.93 296.61 176.91 296.62 176.41 297.08 176.37 296.83 174.75 297.09 174.7 297.12 173.75 296.83 173.72 296.88 172.92 296.6 172.95 296.65 172.19 296.99 172.15 297.25 171.27 297.79 171.25 297.81 170.43 298.13 170.45 298.08 169.84 297.48 169.54 297.52 169.12 297.02 169.18 297.05 167 296.43 166.97 296.23 166.13 296.54 165.69 297.26 165.56 297.56 165.11 298.46 164.75 298.63 162.27 298.13 161.85 298.28 161.62 298.85 161.65 298.84 161.03 297.75 160.12 295.88 159.61 295.24 158.66 295.03 156.99 294.24 155.7 299.44 155.66 307.23 155.7 307.37 162.91 307.77 162.9 307.8 163.89 309.11 163.87 309.06 164.43 310.4 164.41 310.43 164.9 311.13 164.87 311.14 165.46 312.2 165.49 312.22 165.18 312.84 165.19 312.78 163.67 313.33 163.7 313.32 163.07 313.9 163.07 313.91 162.4 314.93 162.19 315.01 161.42 315.63 161.46 315.83 160.84 316.88 160.84 316.86 161.2 319.03 161.16 319.06 161.42 319.38 161.4 319.4 161.88 320.07 161.87 320.06 162.18 321.36 162.24 321.4 162.97 322.09 162.94 322.11 163.29 323.48 163.63 323.78 164.54 324.21 164.54 324.28 165.13 324.83 165.16 324.89 165.72 325.27 165.71 325.3 166.33 326.07 166.62 326.06 167.02 326.46 167.09 326.86 167.62 327.31 167.66 327.31 168.34 328.29 168.51 328.32 168.72 330.49 168.76 330.5 169.03 331.05 169.01 331.08 169.93 331.57 169.91 331.56 170.66 332.09 170.7 332.45 172.51 332.84 172.46 332.86 172.91 333.24 172.92 333.21 173.54 333.48 173.57 333.48 174.07 333.74 174.03 333.66 174.36 334.29 174.57 334.32 174.95 335.01 175.31 335.01 176.37 335.33 176.41 335.4 177.48 335.05 177.53 335.24 181.96 334.87 181.97 334.51 182.99 334.18 183.03 334.14 183.95 324.86 184.01 324.81 184.32 319.58 184.33 318.58 185.18 317.38 184.19 316.37 183.9 315.07 183.98 313.4 181.76 312.87 181.65 312.31 182.27 311.26 182.63 310.69 185.37 308.88 187.03"/>
    <polygon id="Butte" class="cls-2" points="290.86 199.36 282.58 199.46 283.01 196.29 283.37 194.77 283.42 192.08 284.43 190.63 281.26 190.74 280.49 191.02 279.87 190.62 279.73 189.99 280.35 188 280.13 187.01 280.64 186.25 280.13 185.68 281.21 185.15 281.57 184.22 280.97 182.93 280.05 182.72 279.39 182.01 279.43 180.95 278.36 180.73 278.02 180.36 277.94 179.1 278.11 178.34 278.57 177.85 278.37 177.69 277.63 177.92 277.68 177.31 286.4 177.44 286.81 177.05 287.26 175.55 288.25 173.75 290.15 173.67 290.2 173.01 290.55 172.98 290.57 172.18 290.8 172.16 290.76 171.54 291.27 171.48 291.42 170.83 291.81 170.62 291.69 169.23 294.71 168.9 294.72 168.57 295.32 168.59 295.32 168.29 295.76 168.29 295.75 167.93 295.99 167.92 295.93 167.01 296.43 166.97 297.05 167 297.02 169.18 297.52 169.12 297.48 169.54 298.08 169.84 298.13 170.45 297.81 170.43 297.79 171.25 297.25 171.27 296.99 172.15 296.65 172.19 296.6 172.95 296.88 172.92 296.83 173.72 297.12 173.75 297.09 174.7 296.83 174.75 297.08 176.37 296.62 176.41 296.61 176.91 297 176.93 297.06 178.23 298.36 178.47 298.67 179.91 299.18 179.92 299.21 180.42 299.7 180.45 299.68 180.85 300.29 181.05 300.67 182.02 301.14 182.02 301.2 182.59 301.7 182.58 301.77 183.12 302.23 183.06 302.25 183.62 302.87 183.6 302.93 184.64 303.46 184.65 303.48 185.14 303.97 185.13 303.98 185.69 304.29 185.66 304.55 186.22 305.02 186.19 305.09 187.38 305.63 187.4 305.65 187.78 306.47 187.69 306.54 188.46 306.8 188.38 306.81 188.99 306.25 188.99 306.26 189.77 305.11 189.8 305.14 190.1 304.82 190.09 304.76 191.11 304.43 191.09 304.39 191.47 303.57 191.51 303.59 191.18 302.12 191.21 302.09 191.75 300.74 191.74 300.79 191.48 300.03 191.42 299.69 192.91 298.94 193.92 299.04 194.92 298.31 196.9 297.4 198.16 295.1 198.53 295.08 198.96 294.39 199.46 292.69 199.45 291.28 199.12 290.86 199.36"/>
    <polygon id="Mendocino" class="cls-2" points="255.73 216.78 247.93 216.54 247.91 217.04 246.41 217.05 246.35 218.13 239.54 218.19 239.53 219.36 235.97 219.29 234.82 220.05 229.01 213.75 230.14 209.34 226.31 197.75 228.05 189.99 227.2 184.84 225.6 179.52 220.62 172.93 234.44 172.96 234.53 173.74 252.16 173.67 252.83 175.3 252.57 176.13 251.94 176.78 251.68 178.76 252.29 180.68 252.36 182.6 253.08 182.61 253.11 183.89 253.61 184 253.73 188.95 253.76 190.86 252.36 190.86 252.32 191.42 249.75 191.34 249.71 191.68 249.13 191.67 249.15 191.98 248.69 192.01 248.66 193.87 248.33 193.89 248.27 195.43 248.83 195.49 248.89 196.65 249.2 196.63 249.48 198.5 249.91 198.94 249.99 200.5 250.3 200.56 250.63 202.04 250.11 202.06 250.14 202.52 249.81 202.56 249.84 202.79 249.32 202.81 249.09 204.17 248.26 204.24 247.65 208.21 248.76 208.96 248.95 210.29 249.61 210.51 249.63 210.88 250.78 210.91 250.77 211.46 251.1 211.51 251.11 212.81 251.38 212.88 251.4 213.43 251.99 213.7 252.03 214.56 252.87 214.5 252.87 214.78 253.4 214.81 253.45 215.41 254.08 215.37 254.13 215.88 254.45 215.85 254.47 216.1 255.75 216.37 255.73 216.78"/>
    <polygon id="Glenn" class="cls-2" points="283.01 196.29 279.46 196.35 279.43 195.09 275.84 195.18 275.83 196.28 258.17 196.38 258.1 188.93 253.73 188.95 253.61 184 253.11 183.89 253.08 182.61 252.36 182.6 252.29 180.68 278.36 180.73 279.43 180.95 279.39 182.01 280.05 182.72 280.97 182.93 281.57 184.22 281.21 185.15 280.13 185.68 280.64 186.25 280.13 187.01 280.35 188 279.73 189.99 279.87 190.62 280.49 191.02 281.26 190.74 284.43 190.63 283.42 192.08 283.37 194.77 283.01 196.29"/>
    <polygon id="Sierra" class="cls-2" points="308.46 196.13 308.26 191.45 307.82 191.29 307.86 190.67 308.95 189.85 308.88 187.03 310.69 185.37 311.26 182.63 312.31 182.27 312.87 181.65 313.4 181.76 315.07 183.98 316.37 183.9 317.38 184.19 318.58 185.18 319.58 184.33 324.81 184.32 324.86 184.01 334.14 183.95 337.85 183.97 337.83 183.58 338.36 183.56 338.37 194.11 323.81 194.15 323.15 193.73 322.08 191.73 321.22 191.33 319.56 191.4 318.13 192.02 317.57 192.96 316.19 193.99 309.87 195.37 308.9 196.15 308.46 196.13"/>
    <polygon id="Yuba" class="cls-2" points="300.67 209.61 299.76 209.1 298.29 210.42 296.87 210.99 295.44 211.17 293.11 212.05 292.38 213.44 292.04 213.57 291.33 208.33 291.61 206.87 290.67 202.06 290.86 199.36 291.28 199.12 292.69 199.45 294.39 199.46 295.08 198.96 295.1 198.53 297.4 198.16 298.31 196.9 299.04 194.92 298.94 193.92 299.69 192.91 300.03 191.42 300.79 191.48 300.74 191.74 302.09 191.75 302.12 191.21 303.59 191.18 303.57 191.51 304.39 191.47 304.43 191.09 304.76 191.11 304.82 190.09 305.14 190.1 305.11 189.8 306.26 189.77 306.25 188.99 306.81 188.99 306.8 188.38 308.88 187.03 308.95 189.85 307.86 190.67 307.82 191.29 308.26 191.45 308.46 196.13 306.39 196.22 305.15 197.13 304.49 198.33 303.8 198.24 303.58 198.44 303.12 200.11 301.37 200.91 301.27 201.78 300.8 202.5 300.67 209.61"/>
    <polygon id="Lake" class="cls-2" points="255.73 216.78 255.75 216.37 254.47 216.1 254.45 215.85 254.13 215.88 254.08 215.37 253.45 215.41 253.4 214.81 252.87 214.78 252.87 214.5 252.03 214.56 251.99 213.7 251.4 213.43 251.38 212.88 251.11 212.81 251.1 211.51 250.77 211.46 250.78 210.91 249.63 210.88 249.61 210.51 248.95 210.29 248.76 208.96 247.65 208.21 248.26 204.24 249.09 204.17 249.32 202.81 249.84 202.79 249.81 202.56 250.14 202.52 250.11 202.06 250.63 202.04 250.3 200.56 249.99 200.5 249.91 198.94 249.48 198.5 249.2 196.63 248.89 196.65 248.83 195.49 248.27 195.43 248.33 193.89 248.66 193.87 248.69 192.01 249.15 191.98 249.13 191.67 249.71 191.68 249.75 191.34 252.32 191.42 252.36 190.86 253.76 190.86 253.73 188.95 258.1 188.93 258.17 196.38 257.1 196.39 257.16 196.82 257.66 197.01 257.75 197.61 257.21 198.26 256.96 199.31 257.81 200.47 260.19 202.63 262.88 203.16 264.24 203.16 265.83 204.44 265.8 205.37 265.06 205.96 265.34 208.9 266.63 210.01 267.53 210.06 267.55 211.91 269.35 213.76 267.71 213.98 267.52 214.64 268.11 215.8 268.15 216.5 268.65 217.98 268.48 218.37 268.01 218.53 267.71 219.66 266.05 221.88 261.35 223.26 260.79 222.34 259.43 221.65 257.51 218.13 255.72 217 255.73 216.78"/>
    <polygon id="Nevada" class="cls-2" points="300.67 209.61 300.8 202.5 301.27 201.78 301.37 200.91 303.12 200.11 303.58 198.44 303.8 198.24 304.49 198.33 305.15 197.13 306.39 196.22 308.46 196.13 308.9 196.15 309.87 195.37 316.19 193.99 317.57 192.96 318.13 192.02 319.56 191.4 321.22 191.33 322.08 191.73 323.15 193.73 323.81 194.15 338.37 194.11 338.39 199.12 318.53 199.14 313.8 203.07 313.14 204.03 312.04 204.38 310.19 206.27 309.55 207.14 309.64 208.03 307.98 210.41 306.35 210.57 305.22 209.72 303.85 210.26 302.51 210.35 300.67 209.61"/>
    <polygon id="Colusa" class="cls-2" points="269.35 213.76 267.55 211.91 267.53 210.06 266.63 210.01 265.34 208.9 265.06 205.96 265.8 205.37 265.83 204.44 264.24 203.16 262.88 203.16 260.19 202.63 257.81 200.47 256.96 199.31 257.21 198.26 257.75 197.61 257.66 197.01 257.16 196.82 257.1 196.39 258.17 196.38 275.83 196.28 275.84 195.18 279.43 195.09 279.46 196.35 283.01 196.29 282.58 199.46 281.53 201.53 281.82 203.39 281.61 204.24 282.01 205.35 281.55 206.07 282.54 206.69 283.29 208.45 284.35 208.64 284.88 210.62 285.47 211.13 285.03 211.47 284.95 211.97 284.53 212.18 284.45 213.62 269.35 213.76"/>
    <polygon id="Placer" class="cls-2" points="294.72 220.94 294.75 220.05 295.32 220.02 295.31 213.69 296.86 213.66 296.87 210.99 298.29 210.42 299.76 209.1 300.67 209.61 302.51 210.35 303.85 210.26 305.22 209.72 306.35 210.57 307.98 210.41 309.64 208.03 309.55 207.14 310.19 206.27 312.04 204.38 313.14 204.03 313.8 203.07 318.53 199.14 338.39 199.12 338.38 204.91 338.41 206.9 338.39 208.52 334.25 208.49 333.98 209.39 333.43 209.36 333.01 209.89 331.56 209.87 330.98 210.19 325.89 209.91 324.69 212.23 323.19 213.45 321.72 214.1 318.81 212.48 318.26 211.61 317.54 211.5 316.85 210.91 314.7 211.03 313.67 212.03 313.4 212.74 311 212.7 310.87 213.27 309.47 214.03 307.8 214.27 307.4 215.45 307.31 216.93 306.21 218.15 305.62 220.4 304.76 221.82 294.72 220.94"/>
    <polygon id="Sutter" class="cls-2" points="291.48 220.81 291.65 219.8 291.08 219.16 289.66 219.93 288.91 219.74 288.88 218.77 287.8 218.36 287.61 216.71 287.16 215.98 286.84 215.86 286.28 216.21 285.56 216.09 285.18 215.72 285.13 215.16 285.88 214.49 285.43 214.48 285.43 214.13 284.8 214.01 284.45 213.62 284.53 212.18 284.95 211.97 285.03 211.47 285.47 211.13 284.88 210.62 284.35 208.64 283.29 208.45 282.54 206.69 281.55 206.07 282.01 205.35 281.61 204.24 281.82 203.39 281.53 201.53 282.58 199.46 290.86 199.36 290.67 202.06 291.61 206.87 291.33 208.33 292.04 213.57 292.38 213.44 293.11 212.05 295.44 211.17 296.87 210.99 296.86 213.66 295.31 213.69 295.32 220.02 294.75 220.05 294.72 220.94 291.48 220.81"/>
    <polygon id="El_Dorado" data-name="El Dorado" class="cls-2" points="308.42 229.53 305.6 221.58 305.23 221.9 304.76 221.82 305.62 220.4 306.21 218.15 307.31 216.93 307.4 215.45 307.8 214.27 309.47 214.03 310.87 213.27 311 212.7 313.4 212.74 313.67 212.03 314.7 211.03 316.85 210.91 317.54 211.5 318.26 211.61 318.81 212.48 321.72 214.1 323.19 213.45 324.69 212.23 325.89 209.91 330.98 210.19 331.56 209.87 333.01 209.89 333.43 209.36 333.98 209.39 334.25 208.49 338.39 208.52 338.39 211.14 341.5 213.85 341.41 214.45 341.96 214.86 341.95 216.18 341.24 216.66 341 217.51 339.75 219.17 336.32 222.33 335.08 222.54 334.28 224.34 332.12 225.63 331.42 226.76 330.81 227.01 329.99 227.85 328.79 228.28 327.55 228.16 325.75 228.83 324.91 228.78 323.41 229.44 321.12 229.63 319.23 229.31 317.02 228.05 315.09 227.8 314.73 227.51 312.77 228.54 312.54 228.99 311.94 228.97 311.26 229.37 310.72 229.08 308.42 229.53"/>
    <polygon id="Yolo" class="cls-2" points="276.62 229.51 275.79 226.21 275.35 225.54 274.77 225.36 274.92 224.33 274.13 223.78 273.28 222.15 272.22 219.03 271.31 217.32 270.92 216.95 268.97 216.88 268.15 216.5 268.11 215.8 267.52 214.64 267.71 213.98 269.35 213.76 284.45 213.62 284.8 214.01 285.43 214.13 285.43 214.48 285.88 214.49 285.13 215.16 285.18 215.72 285.56 216.09 286.28 216.21 286.84 215.86 287.16 215.98 287.61 216.71 287.8 218.36 288.88 218.77 288.91 219.74 289.66 219.93 291.08 219.16 291.65 219.8 291.48 220.81 290.63 222.9 291.5 224.11 292.41 224.41 292.83 225.94 293.75 225.88 294.17 226.33 293.9 228.34 293.49 228.73 293.61 229.17 292.93 229.59 293.03 230.32 294.05 231.04 294.13 231.37 294.03 231.99 293.51 232.35 293.89 233.37 293.58 234.9 293.16 235.5 292.4 235.82 292.19 236.51 291.76 236.51 288.74 236.44 288.69 228.88 288.06 228.31 285.8 228.81 283.69 228.43 281.87 228.66 281.25 228.79 280.1 229.87 279.06 230.19 277.57 229.41 276.62 229.51"/>
    <polygon id="Napa" class="cls-2" points="271.54 242.48 270.28 240.74 269.6 241.2 271.17 242.48 267.85 242.4 267.64 241.51 268.51 241.11 269.52 241.07 269.08 239.33 268.53 238.82 267.98 236.63 266.38 235.05 266.36 234.29 265.97 233.87 265.86 233.21 265.37 233.07 265.25 231.56 264.08 230.78 263.54 228.95 261.06 226.85 260.87 225.97 261.51 223.65 261.35 223.26 266.05 221.88 267.71 219.66 268.01 218.53 268.48 218.37 268.65 217.98 268.15 216.5 268.97 216.88 270.92 216.95 271.31 217.32 272.22 219.03 273.28 222.15 274.13 223.78 274.92 224.33 274.77 225.36 275.35 225.54 275.79 226.21 276.62 229.51 275.91 232.61 277.41 234.72 277.89 236.02 277.57 236.53 273.75 236.58 273.6 237.33 274.03 237.91 273.42 238.31 273.94 238.66 273.67 239.06 274.08 239.78 273.51 241.5 274.02 242.04 274.04 242.45 271.54 242.48"/>
    <polygon id="Sonoma" class="cls-2" points="264.03 242.8 262.97 241.51 260.92 241.73 258.69 240.77 258.13 240.84 253.27 236.7 252.09 236.91 251.21 236.76 250.35 237.33 248.76 237.44 246.63 232.22 241.45 227.96 234.82 220.05 235.97 219.29 239.53 219.36 239.54 218.19 246.35 218.13 246.41 217.05 247.91 217.04 247.93 216.54 255.73 216.78 255.72 217 257.51 218.13 259.43 221.65 260.79 222.34 261.35 223.26 261.51 223.65 260.87 225.97 261.06 226.85 263.54 228.95 264.08 230.78 265.25 231.56 265.37 233.07 265.86 233.21 265.97 233.87 266.36 234.29 266.38 235.05 267.98 236.63 268.53 238.82 269.08 239.33 269.52 241.07 268.51 241.11 267.64 241.51 267.85 242.4 266.95 244.18 265.2 244.19 264.03 242.8"/>
    <polygon id="Sacramento" class="cls-2" points="289.37 242.11 289.97 241.47 291.34 240.96 291.69 239.61 291.43 238.16 291.76 236.51 292.19 236.51 292.4 235.82 293.16 235.5 293.58 234.9 293.89 233.37 293.51 232.35 294.03 231.99 294.13 231.37 294.05 231.04 293.03 230.32 292.93 229.59 293.61 229.17 293.49 228.73 293.9 228.34 294.17 226.33 293.75 225.88 292.83 225.94 292.41 224.41 291.5 224.11 290.63 222.9 291.48 220.81 294.72 220.94 304.76 221.82 305.23 221.9 305.6 221.58 308.42 229.53 308.42 237.25 306.19 237.65 304.25 238.95 303.11 239.29 301.07 239.12 299.54 239.87 297.15 239.76 296.51 238.92 295.25 238.91 293.78 241.24 293.44 242.66 292.63 243.3 289.54 244.82 289.37 242.11"/>
    <polygon id="Amador" class="cls-2" points="309.37 240.13 308.42 237.25 308.42 229.53 310.72 229.08 311.26 229.37 311.94 228.97 312.54 228.99 312.77 228.54 314.73 227.51 315.09 227.8 317.02 228.05 319.23 229.31 321.12 229.63 323.41 229.44 324.91 228.78 325.75 228.83 327.55 228.16 328.79 228.28 329.99 227.85 330.81 227.01 331.42 226.76 332.12 225.63 334.28 224.34 335.08 222.54 336.32 222.33 336.23 229.43 334.05 230.05 332.15 229.96 328.63 231.04 325.73 231.03 323.92 231.87 323.15 232.67 320.71 233.74 320.62 234.88 319.75 236 316.17 237.62 314.89 237.78 313.54 238.82 312.46 240.22 311.64 240.01 309.37 240.13"/>
    <polygon id="Calaveras" class="cls-2" points="319.4 254.92 311.27 245.48 309.37 240.13 311.64 240.01 312.46 240.22 313.54 238.82 314.89 237.78 316.17 237.62 319.75 236 320.62 234.88 320.71 233.74 323.15 232.67 323.92 231.87 325.73 231.03 328.63 231.04 332.15 229.96 334.05 230.05 336.23 229.43 336.15 231.93 336.78 231.68 337.8 232.27 337.17 232.85 336.56 232.89 335.99 233.37 335 233.59 333.85 234.23 328.81 240.95 328.45 241.89 326.49 244.8 326.21 245.66 325.04 247.19 324.83 248.06 323.03 248.75 322.87 249.34 323.43 250.2 322.9 250.56 322.55 251.43 321.58 252.58 320.77 252.9 319.92 253.88 319.4 254.92"/>
    <polygon id="Toulumne" class="cls-2" points="359.95 258.51 359.05 258.08 358.74 257.06 356.96 254.61 356.18 254.56 355.26 253.68 353.55 253.44 351.89 252.38 351.24 252.3 350.39 253.38 348.95 254.28 348.56 255.62 346.43 256.42 345.49 257.23 344.29 257.58 342.31 257.18 341.46 257.39 340.54 257.22 336.49 255.19 336.11 255.27 334.85 256.56 332.89 256.58 332.6 257.29 331.44 257.58 331.13 258.04 329.97 258.13 329.76 258.44 328.48 258.72 328.29 259 329.08 260.11 329.24 261.13 328.8 261.33 328.05 260.54 327.16 260.4 326.9 260.73 327.28 261.35 326.84 261.97 319.4 254.92 319.92 253.88 320.77 252.9 321.58 252.58 322.55 251.43 322.9 250.56 323.43 250.2 322.87 249.34 323.03 248.75 324.83 248.06 325.04 247.19 326.21 245.66 326.49 244.8 328.45 241.89 328.81 240.95 333.85 234.23 335 233.59 335.99 233.37 336.56 232.89 337.17 232.85 337.8 232.27 342.11 235.03 342.97 234.73 344.43 233.43 345.87 232.8 346.79 232.84 347.34 233.47 347.55 234.8 348.37 235.6 349.17 235.79 348.76 237.76 348.94 238.33 349.6 238.92 349.74 239.83 349.4 240.47 349.5 241.41 350.82 241.53 351.29 242.84 352.63 243.41 352.95 242.69 353.19 242.74 353.47 243.56 354.57 244.93 354.8 245.01 355.35 244.39 357.73 245.65 358.27 246.38 358.56 247.69 358.29 248.9 358.5 250.24 359.07 251 360.98 252.14 361.56 252.78 361.31 253.84 362.06 254.53 361.58 255.04 361.91 256.2 360.79 257.13 359.95 258.51"/>
    <polygon id="Marin" class="cls-2" points="264.03 242.8 265.62 245.24 264.68 247.72 266.58 249.06 265.17 250.96 266.1 254.59 264.41 255.04 259.99 251.88 259.25 252.35 255.42 248.13 252.51 247.28 251.47 248.76 249.88 248.63 251.98 242.71 250.35 237.33 251.21 236.76 252.09 236.91 253.27 236.7 258.13 240.84 258.69 240.77 260.92 241.73 262.97 241.51 264.03 242.8"/>
    <polygon id="San_Joaquin" data-name="San Joaquin" class="cls-2" points="295.04 267.8 295.03 267.18 294.48 266.82 294.32 266.26 293.25 266.02 292.77 265.58 292.84 255.49 293.33 254.54 292.19 253.28 292.69 250.61 292.07 249.1 292.21 248.21 292.59 247.84 292.44 247.17 292.13 247.24 292.18 246.05 292.83 246.06 292.08 244.18 292.63 243.3 293.44 242.66 293.78 241.24 295.25 238.91 296.51 238.92 297.15 239.76 299.54 239.87 301.07 239.12 303.11 239.29 304.25 238.95 306.19 237.65 308.42 237.25 309.37 240.13 311.27 245.48 311.26 258.07 310.41 258.19 309.32 257.48 308.17 258.15 307.29 257.85 307.01 258.15 306.07 258.19 305.61 258.61 304.46 258.98 303.86 259.66 303.83 260.07 302.99 259.9 302.72 260.12 302.56 260.76 301.96 260.94 295.04 267.8"/>
    <path id="Solano" class="cls-3" d="M267.85,242.4l3.69,2.39-.37-2.31Zm23.91-5.89-3-.07-.05-7.56-.63-.57-2.26.5-2.11-.38-1.82.22-.62.14-1.15,1.08-1,.32-1.49-.78-.95.1-.71,3.1,1.5,2.11.48,1.3-.31.51-3.83.05-.15.75.43.57-.61.41.52.35-.28.4.42.73-.57,1.71.51.54,0,.41-2.5,0,1.19,3.29,7.27-2.55,2.4,2.48,3.54.23,3.43-3.82.6-.64,1.37-.51.35-1.35-.26-1.45Z"/>
    <polygon id="Stanislaus" class="cls-2" points="295.04 267.8 301.96 260.94 302.56 260.76 302.72 260.12 302.99 259.9 303.83 260.07 303.86 259.66 304.46 258.98 305.61 258.61 306.07 258.19 307.01 258.15 307.29 257.85 308.17 258.15 309.32 257.48 310.41 258.19 311.26 258.07 311.27 245.48 319.4 254.92 326.84 261.97 326.93 262.42 309.69 270.9 309.53 271.23 309.84 271.7 310.07 273.12 302.65 280.52 301.01 279.01 299.8 279.41 298.57 278.87 298.01 279.21 298.06 279.88 297.32 279.64 297.01 278.18 296.7 277.56 295.78 276.87 295.7 276.34 295.85 274.77 296.47 274.51 296.95 273.89 296.52 272.48 296.81 271.58 296.55 271.19 295.52 270.75 295.19 270.18 295.44 268.94 294.98 268.34 295.04 267.8"/>
    <polygon id="Alameda" class="cls-2" points="295.04 267.8 283.69 267.85 282.06 268.5 280.27 268.43 276.82 267.08 273.69 258.26 270.38 256.66 270.52 252.45 271.85 252.16 272.26 252.34 274.02 254.12 274.65 255.36 275.18 255.35 276.45 256.01 278.44 256.13 279.66 257.02 279.53 257.87 280.25 258.42 280.47 259.05 292.19 255.71 292.65 255.35 292.84 255.49 292.77 265.58 293.25 266.02 294.32 266.26 294.48 266.82 295.03 267.18 295.04 267.8"/>
    <polygon id="Mariposa" class="cls-2" points="337.29 278.72 336.26 277.53 334.01 277.07 333.46 276.57 332.94 274.66 330.86 271.54 330.34 269.76 330.52 269.07 329.21 267.11 326.93 262.42 326.84 261.97 327.28 261.35 326.9 260.73 327.16 260.4 328.05 260.54 328.8 261.33 329.24 261.13 329.08 260.11 328.29 259 328.48 258.72 329.76 258.44 329.97 258.13 331.13 258.04 331.44 257.58 332.6 257.29 332.89 256.58 334.85 256.56 336.11 255.27 336.49 255.19 340.54 257.22 341.46 257.39 342.31 257.18 344.29 257.58 345.49 257.23 346.43 256.42 348.56 255.62 348.95 254.28 350.39 253.38 351.24 252.3 351.89 252.38 353.55 253.44 355.26 253.68 356.18 254.56 356.96 254.61 358.74 257.06 350.82 264.98 350.76 267.43 349.66 267.51 349.65 268.53 348.86 268.62 348.65 270.3 345.62 270.31 337.29 278.72"/>
    <path id="Contra_Costa" data-name="Contra Costa" class="cls-3" d="M292.19,253.28l.5-2.67-.62-1.51.14-.89.38-.37-.15-.67-.31.07.05-1.19-.21-1.14-2.38.3-1.21,2.33-8.85-1.25-8.66,1.58-2.47,1.54.24,2.38,1.88.66,1.33-.29.41.18,1.76,1.78.63,1.24h.53l1.27.66,2,.11,1.21.9-.13.85.72.55.22.63,11.72-3.34.46-.36.19.14.49-1Zm-27.26,3.21v3.07l3.87-.08.58-.84-1.6-3.1Z"/>
    <polygon id="Madera" class="cls-2" points="322.79 283.92 324.76 281.91 325.1 282.14 328.64 281.19 331.09 279.98 333.9 279.56 334.96 279.71 336.71 279.32 337.29 278.72 345.62 270.31 348.65 270.3 348.86 268.62 349.65 268.53 349.66 267.51 350.76 267.43 350.82 264.98 358.74 257.06 359.05 258.08 359.95 258.51 361.16 259.08 362.15 258.38 364.39 258.62 365.98 260.62 366.08 261.56 367.1 264.22 359.39 272.14 358.57 272.68 357.95 274.28 358.44 278.05 358.25 278.54 357.41 279.19 357.44 279.58 356.66 280.13 356.23 280.09 356.02 279.73 355.46 279.78 355.34 280.33 354.7 280.46 354.23 281.46 353.96 281.4 353.37 280.25 352.93 280.34 352.93 280.84 352.63 280.94 351.88 280.39 351.68 280.48 351.61 281.5 352.34 281.69 352.35 281.96 351.69 282.44 351.73 282.83 351.17 283.23 350.6 282.99 349.86 284.46 349.68 284.52 349.41 283.99 348.86 284.46 348.63 285.13 346.58 286.17 346.06 288.28 345.47 288.73 344.95 289.95 344.08 290.9 343.37 290.71 342.57 290.86 342.2 290.64 340.57 291.52 339.03 291.47 337.75 292.19 336.16 291.98 334.45 292.78 333.66 292.89 333.31 293.62 332.96 293.56 332.74 293.12 332.01 293.39 331.97 293.78 331.36 293.66 330.3 294.26 328.63 292.97 328.56 293.43 327.94 293.26 328.02 292.88 327.63 292.31 325.58 290.77 325.2 289.55 325.43 288.93 325.28 288.05 324.05 285.96 323.6 285.64 322.79 283.92"/>
    <polygon id="San_Mateo" data-name="San Mateo" class="cls-2" points="268.8 259.48 268.99 262.92 276.93 268.74 276.48 268.91 275.15 268.65 274.1 269.78 274.35 273.87 274.91 274.21 275.33 275.09 275.15 277.68 272.91 277.7 272.89 278.57 270.72 278.67 270.9 279.98 271.49 281.49 267.38 276.61 268.12 272.44 266.59 267.74 264.71 266.13 264.93 259.56 268.8 259.48"/>
    <polygon id="Merced" class="cls-2" points="302.86 287.06 302.15 285.89 302.42 285.54 302.3 284.33 302.8 283.81 303.07 282.96 302.32 282.16 302.7 281.59 302.87 280.73 302.65 280.52 310.07 273.12 309.84 271.7 309.53 271.23 309.69 270.9 326.93 262.42 329.21 267.11 330.52 269.07 330.34 269.76 330.86 271.54 332.94 274.66 333.46 276.57 334.01 277.07 336.26 277.53 337.29 278.72 336.71 279.32 334.96 279.71 333.9 279.56 331.09 279.98 328.64 281.19 325.1 282.14 324.76 281.91 322.79 283.92 311.67 295.01 311.06 294.38 305.15 291.35 305.07 290.69 303.96 288.92 302.62 288.37 302.49 287.85 302.86 287.06"/>
    <polygon id="Fresno" class="cls-2" points="318.77 311.8 318.69 311.02 319.03 310.55 321.18 309.73 321.19 304.35 311.67 295.01 322.79 283.92 323.6 285.64 324.05 285.96 325.28 288.05 325.43 288.93 325.2 289.55 325.58 290.77 327.63 292.31 328.02 292.88 327.94 293.26 328.56 293.43 328.63 292.97 330.3 294.26 331.36 293.66 331.97 293.78 332.01 293.39 332.74 293.12 332.96 293.56 333.31 293.62 333.66 292.89 334.45 292.78 336.16 291.98 337.75 292.19 339.03 291.47 340.57 291.52 342.2 290.64 342.57 290.86 343.37 290.71 344.08 290.9 344.95 289.95 345.47 288.73 346.06 288.28 346.58 286.17 348.63 285.13 348.86 284.46 349.41 283.99 349.68 284.52 349.86 284.46 350.6 282.99 351.17 283.23 351.73 282.83 351.69 282.44 352.35 281.96 352.34 281.69 351.61 281.5 351.68 280.48 351.88 280.39 352.63 280.94 352.93 280.84 352.93 280.34 353.37 280.25 353.96 281.4 354.23 281.46 354.7 280.46 355.34 280.33 355.46 279.78 356.02 279.73 356.23 280.09 356.66 280.13 357.44 279.58 357.41 279.19 358.25 278.54 358.44 278.05 357.95 274.28 358.57 272.68 359.39 272.14 367.1 264.22 370.33 265.95 370.91 266.76 371.55 266.94 371.75 267.67 372.2 267.96 373.42 267.84 374.32 268.71 374.64 269.49 373.89 271.22 374.42 272.26 374.22 273.15 375.11 273.74 376.32 274.02 377.52 276.17 377.46 276.59 376.97 276.98 377.31 277.76 377.31 278.63 377.73 279.21 377.73 280.36 379.19 280.64 384.2 283.46 384.97 286.22 386.26 289.34 386.51 291.17 385.59 291.62 386.25 294.45 386.75 294.97 381.14 294.99 381.07 295.19 368.3 295.06 368.16 298.17 358.78 298.13 358.79 301.19 354.43 301.15 351.23 304.13 348.68 306.52 348.16 306.09 347.88 306.41 346.1 306.87 345.73 307.23 339.9 307.19 339.76 315.09 329.58 325.08 329.11 324.81 328.17 323.3 327.07 322.79 325.96 322.8 323.79 320.79 323.12 320.89 321.49 319.31 321.22 318.29 320.21 318.15 319.54 317.38 319.12 316.01 319.5 315.77 320.18 314.36 318.95 313.25 318.77 311.8"/>
    <polygon id="Santa_Clara" data-name="Santa Clara" class="cls-2" points="302.86 287.06 297.12 286.93 296.18 286.05 295.12 286.15 294.55 286.51 294.28 287.64 293.23 288.44 292.78 289.46 292.2 289.49 292.09 288.85 290.74 288.31 289.81 286.99 289.13 286.64 288.6 285.31 287.11 283.75 284.3 281.87 279.69 279.63 278.12 277.5 277.16 277.47 276.69 276.37 275.33 275.09 274.91 274.21 274.35 273.87 274.1 269.78 275.15 268.65 276.48 268.91 276.93 268.74 280.27 268.43 282.06 268.5 283.69 267.85 295.04 267.8 294.98 268.34 295.44 268.94 295.19 270.18 295.52 270.75 296.55 271.19 296.81 271.58 296.52 272.48 296.95 273.89 296.47 274.51 295.85 274.77 295.7 276.34 295.78 276.87 296.7 277.56 297.01 278.18 297.32 279.64 298.06 279.88 298.01 279.21 298.57 278.87 299.8 279.41 301.01 279.01 302.65 280.52 302.87 280.73 302.7 281.59 302.32 282.16 303.07 282.96 302.8 283.81 302.3 284.33 302.42 285.54 302.15 285.89 302.86 287.06"/>
    <polygon id="Santa_Cruz" data-name="Santa Cruz" class="cls-2" points="285.66 290.91 282.97 286.81 277.75 287.35 274.46 285.38 271.49 281.49 270.9 279.98 270.72 278.67 272.89 278.57 272.91 277.7 275.15 277.68 275.33 275.09 276.69 276.37 277.16 277.47 278.12 277.5 279.69 279.63 284.3 281.87 287.11 283.75 288.6 285.31 289.13 286.64 289.81 286.99 290.74 288.31 292.09 288.85 292.2 289.49 291.9 289.17 290.86 288.9 290.5 289.24 290.07 288.69 287.9 288.65 287.34 288.88 286.79 289.67 286.12 289.88 285.66 290.91"/>
    <polygon id="San_Benito" data-name="San Benito" class="cls-2" points="318.77 311.8 317.08 310.59 316.49 310.48 317.44 311.92 318.12 313.87 317.99 314.44 316.72 314.54 315.34 313.58 314 311.6 312.26 310.9 311.5 311.06 311.07 311.69 310.02 311.42 310 311.75 309.15 312.25 308.82 311.85 308.36 311.82 307.86 309.77 303.4 305.41 302.26 303.69 300.2 303.51 300.21 302.57 299.5 301.11 299.64 299.62 299.03 298.49 298.54 298.08 297.64 298.04 296.85 297.41 296.15 297.41 295.34 296.73 295.1 295.96 295.75 295.86 295.84 295.64 295.45 294.15 294.26 294.04 292.35 292.2 290.55 290.15 290.5 289.24 290.86 288.9 291.9 289.17 292.2 289.49 292.78 289.46 293.23 288.44 294.28 287.64 294.55 286.51 295.12 286.15 296.18 286.05 297.12 286.93 302.86 287.06 302.49 287.85 302.62 288.37 303.96 288.92 305.07 290.69 305.15 291.35 311.06 294.38 311.67 295.01 321.19 304.35 321.18 309.73 319.03 310.55 318.69 311.02 318.77 311.8"/>
    <polygon id="Monterey" class="cls-2" points="332.4 329.42 299.24 329.14 295.82 326.29 288.65 315.35 283 310.77 280.86 300.71 282.15 298.6 283.44 299.8 285.17 298.31 286.55 292.06 285.66 290.91 286.12 289.88 286.79 289.67 287.34 288.88 287.9 288.65 290.07 288.69 290.5 289.24 290.55 290.15 292.35 292.2 294.26 294.04 295.45 294.15 295.84 295.64 295.75 295.86 295.1 295.96 295.34 296.73 296.15 297.41 296.85 297.41 297.64 298.04 298.54 298.08 299.03 298.49 299.64 299.62 299.5 301.11 300.21 302.57 300.2 303.51 302.26 303.69 303.4 305.41 307.86 309.77 308.36 311.82 308.82 311.85 309.15 312.25 310 311.75 310.02 311.42 311.07 311.69 311.5 311.06 312.26 310.9 314 311.6 315.34 313.58 316.72 314.54 317.99 314.44 318.12 313.87 317.44 311.92 316.49 310.48 317.08 310.59 318.77 311.8 318.95 313.25 320.18 314.36 319.5 315.77 319.12 316.01 319.54 317.38 320.21 318.15 321.22 318.29 321.49 319.31 323.12 320.89 323.79 320.79 325.96 322.8 327.07 322.79 328.17 323.3 329.11 324.81 329.58 325.08 330.63 325.39 331.32 326.09 331.26 327.77 332.27 328.42 332.4 329.42"/>
    <polygon id="Kings" class="cls-2" points="352.05 329.43 332.7 329.38 332.4 329.42 332.27 328.42 331.26 327.77 331.32 326.09 330.63 325.39 329.58 325.08 339.76 315.09 339.9 307.19 345.73 307.23 346.1 306.87 347.88 306.41 348.16 306.09 348.68 306.52 351.23 304.13 352.43 304.19 352.51 307.3 354.04 307.36 354.13 312.03 352.37 312.04 352.05 329.43"/>
    <polygon id="San_Luis_Obispo" data-name="San Luis Obispo" class="cls-2" points="319.34 358.96 320.15 355.3 319.51 352.96 312.97 350.48 312.31 348.67 313.3 344.89 312.56 342.62 309.13 341.58 304.6 335.35 300.97 334.11 299.24 329.14 332.4 329.42 332.7 329.38 332.95 335.68 335.97 335.73 336.11 338.84 336.54 338.89 336.59 339.36 337.07 339.41 337.17 340.32 337.57 340.33 337.63 340.83 338.08 340.89 338.11 341.38 338.51 341.44 338.61 342.28 341.73 342.38 342 345.43 343.79 345.46 343.9 348.6 348.04 348.62 348.01 351.64 351.16 351.58 351.09 354.62 353.17 354.66 353.27 355.16 353.63 355.2 353.77 361.59 353.37 361.59 353.33 361.96 352.33 361.97 349.46 360.05 348.08 359.39 344.38 358.44 342.1 356.58 341.13 356.68 340.35 355.97 338.56 355.69 336.58 354.8 335.81 353.91 333.99 354.9 333.27 355.56 333.01 356.54 332.27 357.04 331.28 357.22 330.65 357.06 329.96 357.49 328.68 357.57 328.73 358.2 329.12 358.46 329.81 359.82 329.86 361.19 329.51 361.57 327.49 359.48 325.19 358.29 324.27 358.36 321.7 359.18 320.45 359.25 319.74 359.66 319.34 358.96"/>
    <polygon id="Alpine" class="cls-2" points="337.8 232.27 336.78 231.68 336.15 231.93 336.23 229.43 336.32 222.33 339.75 219.17 341 217.51 341.24 216.66 341.95 216.18 341.96 214.86 341.41 214.45 341.5 213.85 350.7 222.11 349.78 223.64 349.53 225.41 351.33 229.28 351.55 230.38 351.28 231.19 351.29 232.88 351.08 233.33 349.63 233.69 349.71 234.9 349.17 235.79 348.37 235.6 347.55 234.8 347.34 233.47 346.79 232.84 345.87 232.8 344.43 233.43 342.97 234.73 342.11 235.03 337.8 232.27"/>
    <polygon id="Mono" class="cls-2" points="401.69 268.56 374.32 268.71 373.42 267.84 372.2 267.96 371.75 267.67 371.55 266.94 370.91 266.76 370.33 265.95 367.1 264.22 366.08 261.56 365.98 260.62 364.39 258.62 362.15 258.38 361.16 259.08 359.95 258.51 360.79 257.13 361.91 256.2 361.58 255.04 362.06 254.53 361.31 253.84 361.56 252.78 360.98 252.14 359.07 251 358.5 250.24 358.29 248.9 358.56 247.69 358.27 246.38 357.73 245.65 355.35 244.39 354.8 245.01 354.57 244.93 353.47 243.56 353.19 242.74 352.95 242.69 352.63 243.41 351.29 242.84 350.82 241.53 349.5 241.41 349.4 240.47 349.74 239.83 349.6 238.92 348.94 238.33 348.76 237.76 349.17 235.79 349.71 234.9 349.63 233.69 351.08 233.33 351.29 232.88 351.28 231.19 351.55 230.38 351.33 229.28 349.53 225.41 349.78 223.64 350.7 222.11 358.24 228.72 363.13 233.04 384.7 252.64 401.69 268.56"/>
    <polygon id="Inyo" class="cls-2" points="396.73 329.26 396.94 327.1 397.62 326.6 397.58 325.08 397.05 323.72 396.58 323.27 396.79 322.26 395.82 321 395.18 318.72 395.03 316.98 395.29 316.38 395.23 315.66 394.01 314.61 393.72 312.54 393.27 311.73 393.9 309.38 392.49 307.66 392.97 307.29 392.86 306.61 392.5 306.34 391.16 306.29 390.75 305.4 390.1 304.91 390.15 303.27 388.59 301.27 389 300.3 387.8 299.03 387.31 297.72 386.7 297.18 387.54 296.02 386.75 294.97 386.25 294.45 385.59 291.62 386.51 291.17 386.26 289.34 384.97 286.22 384.2 283.46 379.19 280.64 377.73 280.36 377.73 279.21 377.31 278.63 377.31 277.76 376.97 276.98 377.46 276.59 377.52 276.17 376.32 274.02 375.11 273.74 374.22 273.15 374.42 272.26 373.89 271.22 374.64 269.49 374.32 268.71 401.69 268.56 421.59 286.9 459 321.88 466.62 329.33 437.83 329.3 407.45 328.97 398.97 329 399.01 329.24 396.73 329.26"/>
    <polygon id="Tulare" class="cls-2" points="352.05 329.43 352.37 312.04 354.13 312.03 354.04 307.36 352.51 307.3 352.43 304.19 351.23 304.13 354.43 301.15 358.79 301.19 358.78 298.13 368.16 298.17 368.3 295.06 381.07 295.19 381.14 294.99 386.75 294.97 387.54 296.02 386.7 297.18 387.31 297.72 387.8 299.03 389 300.3 388.59 301.27 390.15 303.27 390.1 304.91 390.75 305.4 391.16 306.29 392.5 306.34 392.86 306.61 392.97 307.29 392.49 307.66 393.9 309.38 393.27 311.73 393.72 312.54 394.01 314.61 395.23 315.66 395.29 316.38 395.03 316.98 395.18 318.72 395.82 321 396.79 322.26 396.58 323.27 397.05 323.72 397.58 325.08 397.62 326.6 396.94 327.1 396.73 329.26 352.05 329.43"/>
    <polygon id="Kern" class="cls-2" points="406.77 364.29 370.8 364.6 369.31 364.58 369.32 364.83 360.51 364.63 360.47 363.14 359.55 363.09 359.49 362.69 356.56 362.61 356.47 361.62 354.68 361.65 353.77 361.59 353.63 355.2 353.27 355.16 353.17 354.66 351.09 354.62 351.16 351.58 348.01 351.64 348.04 348.62 343.9 348.6 343.79 345.46 342 345.43 341.73 342.38 338.61 342.28 338.51 341.44 338.11 341.38 338.08 340.89 337.63 340.83 337.57 340.33 337.17 340.32 337.07 339.41 336.59 339.36 336.54 338.89 336.11 338.84 335.97 335.73 332.95 335.68 332.7 329.38 352.05 329.43 396.73 329.26 399.01 329.24 398.97 329 407.45 328.97 407.5 332.54 406.68 332.62 406.73 333.71 408.03 333.72 408.03 334.38 407.57 334.43 407.82 354.46 407.42 354.44 407.57 364.27 406.77 364.29"/>
    <polygon id="San_Bernardino" data-name="San Bernardino" class="cls-2" points="403.31 395.34 402.98 394.14 403.98 392.79 405 392.85 406.1 389.38 407.52 383.43 407.05 373.61 406.8 373.59 406.77 364.29 407.57 364.27 407.42 354.44 407.82 354.46 407.57 334.43 408.03 334.38 408.03 333.72 406.73 333.71 406.68 332.62 407.5 332.54 407.45 328.97 437.83 329.3 466.62 329.33 496.12 358.02 495.8 358.07 496.13 360 495.85 360.87 495.94 362.44 497.62 364 498.44 366.57 498.93 366.97 499.74 367.11 500.69 368.36 501.96 371.89 501.61 372.32 502.33 372.86 503.29 374.54 503.09 376.66 503.3 377.28 504.59 377.45 505.46 378.13 506.04 378.97 506.79 379.21 509.01 380.64 509.85 381.66 510.42 382.44 510.68 383.93 509.95 384.13 507.43 387 505.98 387.53 504.88 388.59 502.31 389.96 501.91 390.82 475.84 390.84 475.83 392.16 456.44 392.42 428.5 392.37 428.52 393.4 419.74 393.34 419.75 392.95 415.39 392.87 415.36 392.37 410.02 392.41 410.02 393.88 408.52 394.55 408.45 396.12 407.12 396.2 407.06 396.94 406.31 396.99 406.42 397.81 403.31 395.34"/>
    <polygon id="Ventura" class="cls-2" points="370.8 364.6 376.81 379.14 378.37 383.29 378.48 384.91 377.32 384.86 377.28 387.43 373.7 387.44 369.44 390.62 369.38 392.18 361.25 388.41 359.77 385.16 353.42 380.3 354.4 379.54 354.31 378.57 354.8 377.85 354.68 361.65 356.47 361.62 356.56 362.61 359.49 362.69 359.55 363.09 360.47 363.14 360.51 364.63 369.32 364.83 369.31 364.58 370.8 364.6"/>
    <polygon id="Riverside" class="cls-2" points="453.23 413.86 425.4 413.81 425.39 413.55 419.35 413.57 419.33 413.18 415.55 411.56 415.66 410.88 411.36 410.95 411.31 409.96 414.23 405.62 412.28 403.96 410.71 403.82 410.67 402.22 409.63 401.92 406.42 397.81 406.31 396.99 407.06 396.94 407.12 396.2 408.45 396.12 408.52 394.55 410.02 393.88 410.02 392.41 415.36 392.37 415.39 392.87 419.75 392.95 419.74 393.34 428.52 393.4 428.5 392.37 456.44 392.42 475.83 392.16 475.84 390.84 501.91 390.82 501.76 392.54 499.14 394.83 498.93 395.28 499.73 396.25 499.06 398.45 499.33 399.19 499.06 399.75 499.54 401.67 499.38 402.68 499.81 403.9 498.61 404.81 498.94 405.42 498.88 406.95 498.5 408.41 498.81 409.13 497.12 410.92 496.8 411.74 496.12 412.35 495.85 413.38 483.04 413.72 453.23 413.86"/>
    <path id="Santa_Barbara" data-name="Santa Barbara" class="cls-3" d="M331.25,393.21l2.09,3.07,1.7,1,4.28-1.87-2.44-3.31Zm-2.34-1-.36-.25-.16-.06-.25.08-.34,0-.14-.21.13-.19-.08-.23-.09-.24-.2-.16v.17l-.32.37-.42.27-.27.07-.35-.11-.67.56-.33.1.1.2.23,0,.42.16.25-.26.27,0,.39.19.31.06.25.23.39.11.27-.16.63,0h.63l.05-.29-.14-.28Zm19.09.66-5.87-1.91-1.76.57,1.58,1-.44,1,1.22,1.29,4,.11,5.08-1.46.48-1-1.46-.75Zm6.8-15-.12-16.2-.91-.06h-.4l0,.37h-1l-2.87-1.92-1.38-.66-3.7-1-2.28-1.85-1,.09-.78-.7-1.79-.27-2-.9-.77-.89-1.82,1-.72.65-.26,1-.74.5-1,.18-.63-.16-.69.43-1.28.08.05.63.39.26.69,1.36.05,1.37-.35.38-2-2.09-2.3-1.19-.92.07-2.57.82-1.25.07-.71.41-.4-.7-.64,2.47,1.7,1.72-.69,3.42.88,2-1.16,4.7,3.87,1.81,1.56,2.81,9.28-1.05,3.77.37,4.17,2,7.72-.41,3.62,1.48,1-.76-.09-1Z"/>
    <polygon id="Orange" class="cls-2" points="411.36 410.95 411.35 411.65 410.82 412.44 409.3 412.64 408.77 414.96 393.82 402.52 394.37 402 394.26 400.88 395.03 400.31 395.71 398.45 396.58 397.81 397.18 397.73 397.24 397.2 397.79 396.65 397.82 395.55 403.31 395.34 406.42 397.81 409.63 401.92 410.67 402.22 410.71 403.82 412.28 403.96 414.23 405.62 411.31 409.96 411.36 410.95"/>
    <polygon id="San_Diego" data-name="San Diego" class="cls-2" points="422.54 445 420.44 438.63 422.76 442.66 422.65 440.01 420.47 437.92 419.02 439.97 417.93 434 418.82 432.71 416.66 424.89 414.26 420.59 408.77 414.96 409.3 412.64 410.82 412.44 411.35 411.65 411.36 410.95 415.66 410.88 415.55 411.56 419.33 413.18 419.35 413.57 425.39 413.55 425.4 413.81 453.23 413.86 453.26 426.19 452.6 426.23 452.51 442.08 422.54 445"/>
    <path id="Los_Angeles" data-name="Los Angeles" class="cls-3" d="M354.59,420.31l-.56-.51-.59-.24-.18-.13-.27,0-.46-.36-.55-.35-.31.22h-.23l-.35.29-.45-.26,0,.11.18.4,0,.21.21.22v.17l.67.57.61.12.24.2.37.05.21.12.13-.05.11,0,.42.09.13,0h.35l.29-.12.22,0,.14-.14v-.26Zm25.59,7.23-.83.52,2.58,4.51,2.69,3,2-.45-5.6-5.88Zm26.87-53.93-.25,0,0-9.3-36,.31,6,14.54,1.56,4.15.11,1.62-1.16-.05,0,2.57H373.7l-4.26,3.18-.06,1.56,4.44.77,7.23-.67,3.8,5.46.71,2.5-1.2,1.3.7,1.3,3.47,1.22,1.18-2.47,4.11.93.55-.52-.11-1.12.77-.57.68-1.86.87-.63.6-.09.06-.53.54-.55,0-1.1,5.49-.21-.33-1.2,1-1.35,1,.06,1.1-3.47,1.42-5.95Zm-27.56,38.31,1.13,1.63,2.2.53.76,3.33L388,418l.27-.95-2-2.69Z"/>
    <polygon id="Imperial" class="cls-2" points="452.51 442.08 452.6 426.23 453.26 426.19 453.23 413.86 483.04 413.72 495.85 413.38 495.42 414.09 493.08 414.38 493.7 416.44 492.77 418.08 494.46 419.4 494.17 420.41 494.39 420.93 494.45 422.94 493.53 424.51 493.47 425.46 494.87 427.43 495.42 427.24 495.75 427.62 496.45 427.85 497.94 427.51 499.07 427.83 500.61 429.57 500.37 431.04 500.81 434.2 498.91 435.44 498.65 436.2 498.79 436.79 498.41 436.79 498.42 437.16 497.87 437.16 497.89 437.57 497.56 437.57 497.57 437.97 496.64 438.03 496.63 438.36 493.98 437.83 493.44 438.06 493.16 438.55 452.51 442.08"/>
  </g>
  <g id="copyright">
    <text class="cls-4" transform="translate(584.26 527.83)">Co<tspan class="cls-5" x="9.84" y="0">p</tspan><tspan class="cls-6" x="14.31" y="0">yright © </tspan><tspan class="cls-7" x="45" y="0">F</tspan><tspan class="cls-8" x="49.47" y="0">r</tspan><tspan x="52.17" y="0">ee </tspan><tspan class="cls-9" x="62.62" y="0">V</tspan><tspan x="67.46" y="0">ec</tspan><tspan class="cls-10" x="75.88" y="0">t</tspan><tspan class="cls-6" x="78.45" y="0">or Maps.com</tspan></text>
  </g>
</svg>
