<svg xmlns="http://www.w3.org/2000/svg" viewBox="0 0 1070.43 1200.74">
  <defs>
    <style>
      .cls-1 {
        fill: #f9f9f9;
      }

      .cls-2, .cls-3 {
        fill: #878787;
        stroke: #f9f9f9;
        stroke-linecap: round;
        stroke-linejoin: round;
        stroke-width: 0.64px;
      }

      .cls-2 {
        fill-rule: evenodd;
      }
    </style>
  </defs>
  <title>vertical_US-CA-EPS-01-0002</title>
  <g id="Background">
    <rect class="cls-1" width="1073.42" height="1203.53"/>
  </g>
  <g id="CA">
    <polygon id="Siskiyou" class="cls-2" points="380.34 235.65 301.62 235.76 299.65 233.64 299.59 232.55 300.85 224.1 302.49 222.22 300.29 220.07 298.56 219.76 297.49 217.35 295.36 217.16 294.39 221.18 290.46 221.78 289.58 224.89 285.07 226.52 283.75 229.11 280.77 230.93 279 233.63 276.74 233.58 275.13 234.41 272.48 234.07 269.16 236.28 266.54 236.39 266.76 240.61 266 245.21 269.47 247.67 270.97 251.81 270.36 254.52 269.24 255 265.47 252.83 261.53 253.8 258.55 248.9 254.31 246.62 249.69 247.1 246.38 246.5 240.97 239.89 238.68 239.54 237.02 238.1 235.17 238.63 232.66 236.34 229.96 232.01 230.26 226.93 229.16 225.68 229.58 223.78 227.81 221.48 227.74 218.52 226.26 216.43 214.27 216.24 215.36 213.97 215.28 211.65 217.3 208.12 217.13 206.26 215.17 203.51 214.45 200.49 211.99 198.55 211.79 195.08 209.65 195 210.22 191.89 212.37 189.54 212.24 187.02 213.16 184.94 213.14 181.36 211.85 177.63 212.48 174.78 210.84 171.26 213.53 169.23 214.95 164.94 217.94 165.1 218.82 163.61 220.45 163.69 221.6 162.78 223.49 157.81 223.42 154.81 224.44 153.31 246.38 152.87 317.03 153.01 380.59 153.67 380.5 158.69 379.85 158.86 379.63 176.76 380.47 176.77 380.34 235.65"/>
    <polygon id="Del_Norte" data-name="Del Norte" class="cls-2" points="214.27 216.24 205.48 216.17 205.44 207.35 183.38 207.81 176.88 180.7 169.43 175.69 172.11 168.46 172.19 153.33 201.38 153.81 224.44 153.31 223.42 154.81 223.49 157.81 221.6 162.78 220.45 163.69 218.82 163.61 217.94 165.1 214.95 164.94 213.53 169.23 210.84 171.26 212.48 174.78 211.85 177.63 213.14 181.36 213.16 184.94 212.24 187.02 212.37 189.54 210.22 191.89 209.65 195 211.79 195.08 211.99 198.55 214.45 200.49 215.17 203.51 217.13 206.26 217.3 208.12 215.28 211.65 215.36 213.97 214.27 216.24"/>
    <polygon id="Modoc" class="cls-2" points="389.29 235.83 380.34 235.65 380.47 176.77 379.63 176.76 379.85 158.86 380.5 158.69 380.59 153.67 423.52 154.34 489.73 154.19 489.51 235.97 389.29 235.83"/>
    <polygon id="Humboldt" class="cls-2" points="222.66 353.06 187.17 353 180.62 342.97 161.72 327.97 162.41 320.55 158.15 309.89 179.5 255.91 176.46 240.85 182.35 222.31 183.38 207.81 205.44 207.35 205.48 216.17 214.27 216.24 226.26 216.43 227.74 218.52 227.81 221.48 229.58 223.78 229.16 225.68 230.26 226.93 229.96 232.01 232.66 236.34 231.81 238.68 231.46 243.7 229.17 245.95 231.74 249.23 232.94 252.65 230.12 257.74 230.02 259.56 226.72 262.46 221.97 260.11 217.88 260.88 217.66 261.58 218.82 266.35 221.77 271.09 222.18 273.64 221.52 275.36 223.01 281.05 222.66 353.06"/>
    <polygon id="Trinity" class="cls-2" points="268.17 354.9 222.9 355.06 222.66 353.06 223.01 281.05 221.52 275.36 222.18 273.64 221.77 271.09 218.82 266.35 217.66 261.58 217.88 260.88 221.97 260.11 226.72 262.46 230.02 259.56 230.12 257.74 232.94 252.65 231.74 249.23 229.17 245.95 231.46 243.7 231.81 238.68 232.66 236.34 235.17 238.63 237.02 238.1 238.68 239.54 240.97 239.89 246.38 246.5 249.69 247.1 254.31 246.62 258.55 248.9 261.53 253.8 265.47 252.83 269.24 255 270.36 254.52 270.97 251.81 269.47 247.67 266 245.21 266.76 240.61 266.54 236.39 269.16 236.28 272.48 234.07 275.13 234.41 276.74 233.58 279 233.63 280.77 230.93 283.75 229.11 285.07 226.52 289.58 224.89 290.46 221.78 294.39 221.18 295.36 217.16 297.49 217.35 298.56 219.76 300.29 220.07 302.49 222.22 300.85 224.1 299.59 232.55 299.65 233.64 301.62 235.76 305.18 239.06 304.39 244.52 299.12 246.54 298.59 253.12 293.11 259.06 292.67 264.75 289.49 271.32 288.97 276.42 285.65 278.47 284.7 280.06 285.29 282.29 284.71 283.95 282.62 285.02 283.85 290.18 286.74 294.75 286.41 296.93 283.55 297.19 281.98 299.13 279.69 299.86 278.96 302.06 275.57 303.31 274.71 305.56 272.78 306.81 271.18 309.79 269.79 309.33 266.95 312.03 263.69 313.13 262.95 315.83 259.37 319.69 259.07 325.64 261.32 327.29 263.69 328.13 265.29 329.65 265.81 334.23 264.93 338.9 265.58 339.8 266.03 346.22 267.08 348.39 266.87 350.19 268.17 354.9"/>
    <polygon id="Shasta" class="cls-2" points="389.57 308.63 376.22 308.75 372.12 308.76 371.14 310.02 365.12 309.99 361.94 308.31 357.44 310.37 350.63 310.17 344.07 311.94 331.81 313.52 323.68 316.56 321.55 315.96 313.39 317.39 309.01 317.28 304.42 316.64 300.4 314.85 290.8 320.43 287.98 320.46 282.82 317.36 274.46 319.16 270.17 323.38 264.41 323.01 261.38 324.73 261.32 327.29 259.07 325.64 259.37 319.69 262.95 315.83 263.69 313.13 266.95 312.03 269.79 309.33 271.18 309.79 272.78 306.81 274.71 305.56 275.57 303.31 278.96 302.06 279.69 299.86 281.98 299.13 283.55 297.19 286.41 296.93 286.74 294.75 283.85 290.18 282.62 285.02 284.71 283.95 285.29 282.29 284.7 280.06 285.65 278.47 288.97 276.42 289.49 271.32 292.67 264.75 293.11 259.06 298.59 253.12 299.12 246.54 304.39 244.52 305.18 239.06 301.62 235.76 380.34 235.65 389.29 235.83 389.38 263.7 390.34 263.7 389.57 308.63"/>
    <polygon id="Lassen" class="cls-2" points="478.69 381.3 478.79 378.94 479.64 378.82 480.55 376.22 481.5 376.19 481.03 364.81 481.93 364.69 481.75 361.93 480.93 361.82 480.93 359.1 479.14 358.18 479.06 357.2 477.46 356.67 477.65 355.82 476.98 355.93 476.98 354.64 476.3 354.57 476.38 352.96 475.38 352.95 475.35 351.79 474.35 351.91 473.42 347.25 472.06 347.17 472.09 345.24 470.82 345.29 470.74 342.92 469.33 342.97 469.31 342.3 463.73 342.18 463.66 341.64 461.15 341.19 461.13 339.45 460 339.36 458.95 338 457.95 337.82 457.95 336.79 455.98 336.05 455.92 334.44 454.92 334.48 454.78 333.05 453.37 332.97 453.17 331.45 452.08 331.45 451.31 329.1 447.78 328.25 447.75 327.35 445.98 327.42 445.86 325.54 442.54 325.39 442.55 324.58 440.82 324.6 440.78 323.39 439.96 323.43 439.89 322.76 434.3 322.88 434.36 321.94 431.67 321.95 431.14 323.54 429.55 323.43 429.36 325.41 426.74 325.96 426.72 327.66 425.22 327.68 425.24 329.29 423.83 329.21 423.99 333.1 422.4 333.08 422.34 333.88 419.62 333.82 419.6 332.3 417.78 332.37 417.73 331.12 414.28 331.17 414.4 329.73 411.04 329.78 410.98 327.23 409.93 327.27 409.59 308.75 389.57 308.63 390.34 263.7 389.38 263.7 389.29 235.83 489.51 235.97 489.52 380.29 488.17 380.33 488.21 381.35 478.69 381.3"/>
    <polygon id="Tehama" class="cls-2" points="268.5 372.9 266.92 367.96 267.59 362.88 269.2 361.22 269.88 359.08 268.17 354.9 266.87 350.19 267.08 348.39 266.03 346.22 265.58 339.8 264.93 338.9 265.81 334.23 265.29 329.65 263.69 328.13 261.32 327.29 261.38 324.73 264.41 323.01 270.17 323.38 274.46 319.16 282.82 317.36 287.98 320.46 290.8 320.43 300.4 314.85 304.42 316.64 309.01 317.28 313.39 317.39 321.55 315.96 323.68 316.56 331.81 313.52 344.07 311.94 350.63 310.17 357.44 310.37 361.94 308.31 365.12 309.99 371.14 310.02 372.12 308.76 376.22 308.75 378.25 312.07 378.77 316.36 380.44 318.8 385.23 320.1 388.03 322.44 388.05 324.01 386.6 323.94 386.21 324.54 387.49 325.61 387.06 331.99 384.74 332.9 383.98 334.06 382.13 334.41 381.32 335.52 381.83 337.69 380.57 337.8 380.72 340.12 380.09 340.15 380.13 341.08 379 341.09 378.99 341.85 377.44 341.79 377.44 342.64 369.68 343.5 369.99 347.06 368.97 347.6 368.6 349.27 367.3 349.42 367.38 351.03 366.79 351.06 366.75 353.11 365.85 353.2 365.71 354.9 360.83 355.1 358.3 359.73 357.14 363.58 356.1 364.56 333.69 364.24 333.55 365.8 335.47 365.21 335.99 365.63 334.79 366.9 334.35 368.84 334.57 372.08 335.43 373.01 268.5 372.9"/>
    <polygon id="Plumas" class="cls-2" points="413.82 389.21 408.47 392.68 407.81 392.88 407.63 390.89 405.52 391.12 405.48 390.14 404.08 390.11 403.9 387.06 402.69 387.11 402.04 385.67 401.23 385.75 401.21 384.33 399.95 384.34 399.89 383.1 398.54 383.07 398.37 380.41 396.8 380.43 396.73 379.01 395.56 379.15 395.37 377.78 394.11 377.79 393.95 376.33 392.73 376.34 391.76 373.85 390.2 373.34 390.24 372.31 388.97 372.23 388.91 370.95 387.6 370.92 386.8 367.21 383.47 366.61 383.31 363.27 382.31 363.23 382.34 361.93 383.51 361.83 382.87 357.67 383.54 357.55 383.61 355.09 382.88 355.04 383.01 352.98 382.29 353.05 382.42 351.08 383.28 351 383.94 348.73 385.34 348.67 385.38 346.57 386.2 346.62 386.08 345.06 384.55 344.28 384.63 343.2 383.37 343.35 383.43 337.75 381.83 337.69 381.32 335.52 382.13 334.41 383.98 334.06 384.74 332.9 387.06 331.99 387.49 325.61 386.21 324.54 386.6 323.94 388.05 324.01 388.03 322.44 385.23 320.1 380.44 318.8 378.77 316.36 378.25 312.07 376.22 308.75 389.57 308.63 409.59 308.75 409.93 327.27 410.98 327.23 411.04 329.78 414.4 329.73 414.28 331.17 417.73 331.12 417.78 332.37 419.6 332.3 419.62 333.82 422.34 333.88 422.4 333.08 423.99 333.1 423.83 329.21 425.24 329.29 425.22 327.68 426.72 327.66 426.74 325.96 429.36 325.41 429.55 323.43 431.14 323.54 431.67 321.95 434.36 321.94 434.3 322.88 439.89 322.76 439.96 323.43 440.78 323.39 440.82 324.6 442.55 324.58 442.54 325.39 445.86 325.54 445.98 327.42 447.75 327.35 447.78 328.25 451.31 329.1 452.08 331.45 453.17 331.45 453.37 332.97 454.78 333.05 454.92 334.48 455.92 334.44 455.98 336.05 457.95 336.79 457.95 337.82 458.95 338 460 339.36 461.13 339.45 461.15 341.19 463.66 341.64 463.73 342.18 469.31 342.3 469.33 342.97 470.74 342.92 470.82 345.29 472.09 345.24 472.06 347.17 473.42 347.25 474.35 351.91 475.35 351.79 475.38 352.95 476.38 352.96 476.3 354.57 476.98 354.64 476.98 355.93 477.65 355.82 477.46 356.67 479.06 357.2 479.14 358.18 480.93 359.1 480.93 361.82 481.75 361.93 481.93 364.69 481.03 364.81 481.5 376.19 480.55 376.22 479.64 378.82 478.79 378.94 478.69 381.3 454.84 381.45 454.74 382.25 441.3 382.26 438.73 384.44 435.65 381.9 433.05 381.15 429.72 381.37 425.43 375.67 424.06 375.37 422.64 376.99 419.92 377.9 418.46 384.93 413.82 389.21"/>
    <polygon id="Butte" class="cls-2" points="367.53 420.88 346.27 421.13 347.37 412.98 348.29 409.08 348.43 402.16 351.03 398.44 342.89 398.72 340.91 399.44 339.32 398.41 338.96 396.79 340.54 391.69 340 389.14 341.29 387.21 340 385.72 342.77 384.38 343.68 381.98 342.15 378.67 339.77 378.13 338.1 376.3 338.18 373.58 335.43 373.01 334.57 372.08 334.35 368.84 334.79 366.9 335.99 365.63 335.47 365.21 333.55 365.8 333.69 364.24 356.1 364.56 357.14 363.58 358.3 359.73 360.83 355.1 365.71 354.9 365.85 353.2 366.75 353.11 366.79 351.06 367.38 351.03 367.3 349.42 368.6 349.27 368.97 347.6 369.99 347.06 369.68 343.5 377.44 342.64 377.44 341.79 378.99 341.85 379 341.09 380.13 341.08 380.09 340.15 380.72 340.12 380.57 337.8 381.83 337.69 383.43 337.75 383.37 343.35 384.63 343.2 384.55 344.28 386.08 345.06 386.2 346.62 385.38 346.57 385.34 348.67 383.94 348.73 383.28 351 382.42 351.08 382.29 353.05 383.01 352.98 382.88 355.04 383.61 355.09 383.54 357.55 382.87 357.67 383.51 361.83 382.34 361.93 382.31 363.23 383.31 363.27 383.47 366.61 386.8 367.21 387.6 370.92 388.91 370.95 388.97 372.23 390.24 372.31 390.2 373.34 391.76 373.85 392.73 376.34 393.95 376.33 394.11 377.79 395.37 377.78 395.56 379.15 396.73 379.01 396.8 380.43 398.37 380.41 398.54 383.07 399.89 383.1 399.95 384.34 401.21 384.33 401.23 385.75 402.04 385.67 402.69 387.11 403.9 387.06 404.08 390.11 405.48 390.14 405.52 391.12 407.63 390.89 407.81 392.88 408.47 392.68 408.5 394.23 407.06 394.25 407.1 396.24 404.13 396.32 404.21 397.07 403.4 397.06 403.24 399.69 402.39 399.63 402.3 400.61 400.19 400.7 400.24 399.86 396.46 399.94 396.39 401.31 392.92 401.29 393.03 400.62 391.09 400.49 390.23 404.29 388.28 406.9 388.53 409.46 386.66 414.55 384.34 417.79 378.42 418.73 378.38 419.83 376.6 421.11 372.25 421.09 368.62 420.25 367.53 420.88"/>
    <polygon id="Mendocino" class="cls-2" points="277.32 465.6 257.29 464.98 257.24 466.26 253.41 466.29 253.23 469.06 235.76 469.23 235.74 472.22 226.59 472.04 223.63 474 208.71 457.83 211.61 446.48 201.79 416.72 206.24 396.8 204.06 383.57 199.95 369.92 187.17 353 222.66 353.06 222.9 355.06 268.17 354.9 269.88 359.08 269.2 361.22 267.59 362.88 266.92 367.96 268.5 372.9 268.67 377.84 270.53 377.86 270.6 381.15 271.88 381.43 272.18 394.12 272.27 399.04 268.66 399.04 268.57 400.47 261.99 400.26 261.86 401.15 260.37 401.11 260.43 401.91 259.26 401.98 259.17 406.78 258.31 406.83 258.17 410.78 259.61 410.91 259.76 413.92 260.57 413.87 261.28 418.65 262.39 419.77 262.6 423.78 263.37 423.96 264.24 427.75 262.9 427.79 262.98 428.98 262.13 429.07 262.21 429.69 260.87 429.73 260.29 433.21 258.15 433.39 256.57 443.59 259.43 445.53 259.92 448.93 261.61 449.49 261.67 450.45 264.63 450.53 264.58 451.95 265.44 452.07 265.47 455.41 266.16 455.59 266.2 457 267.72 457.69 267.81 459.89 269.99 459.75 269.99 460.46 271.34 460.55 271.48 462.08 273.08 461.98 273.21 463.3 274.05 463.2 274.09 463.86 277.39 464.54 277.32 465.6"/>
    <polygon id="Glenn" class="cls-2" points="347.37 412.98 338.26 413.13 338.18 409.91 328.98 410.13 328.95 412.96 283.58 413.21 283.4 394.07 272.18 394.12 271.88 381.43 270.6 381.15 270.53 377.86 268.67 377.84 268.5 372.9 335.43 373.01 338.18 373.58 338.1 376.3 339.77 378.13 342.15 378.67 343.68 381.98 342.77 384.38 340 385.72 341.29 387.21 340 389.14 340.54 391.69 338.96 396.79 339.32 398.41 340.91 399.44 342.89 398.72 351.03 398.44 348.43 402.16 348.29 409.08 347.37 412.98"/>
    <polygon id="Sierra" class="cls-2" points="412.75 412.57 412.23 400.55 411.09 400.15 411.2 398.55 413.99 396.44 413.82 389.21 418.46 384.93 419.92 377.9 422.64 376.99 424.06 375.37 425.43 375.67 429.72 381.37 433.05 381.15 435.65 381.9 438.73 384.44 441.3 382.26 454.74 382.25 454.84 381.45 478.69 381.3 488.21 381.35 488.17 380.33 489.52 380.29 489.54 407.39 452.16 407.5 450.46 406.41 447.7 401.28 445.51 400.25 441.24 400.41 437.57 402.02 436.14 404.42 432.6 407.08 416.35 410.61 413.87 412.61 412.75 412.57"/>
    <polygon id="Yuba" class="cls-2" points="392.74 447.19 390.4 445.89 386.62 449.27 382.98 450.72 379.3 451.19 373.33 453.45 371.45 457.01 370.57 457.36 368.75 443.9 369.46 440.16 367.06 427.79 367.53 420.88 368.62 420.25 372.25 421.09 376.6 421.11 378.38 419.83 378.42 418.73 384.34 417.79 386.66 414.55 388.53 409.46 388.28 406.9 390.23 404.29 391.09 400.49 393.03 400.62 392.92 401.29 396.39 401.31 396.46 399.94 400.24 399.86 400.19 400.7 402.3 400.61 402.39 399.63 403.24 399.69 403.4 397.06 404.21 397.07 404.13 396.32 407.1 396.24 407.06 394.25 408.5 394.23 408.47 392.68 413.82 389.21 413.99 396.44 411.2 398.55 411.09 400.15 412.23 400.55 412.75 412.57 407.42 412.8 404.24 415.14 402.54 418.22 400.78 417.99 400.22 418.5 399.02 422.8 394.54 424.85 394.28 427.07 393.06 428.93 392.74 447.19"/>
    <polygon id="Lake" class="cls-2" points="277.32 465.6 277.39 464.54 274.09 463.86 274.05 463.2 273.21 463.3 273.08 461.98 271.48 462.08 271.34 460.55 269.99 460.46 269.99 459.75 267.81 459.89 267.72 457.69 266.2 457 266.16 455.59 265.47 455.41 265.44 452.07 264.58 451.95 264.63 450.53 261.67 450.45 261.61 449.49 259.92 448.93 259.43 445.53 256.57 443.59 258.15 433.39 260.29 433.21 260.87 429.73 262.21 429.69 262.13 429.07 262.98 428.98 262.9 427.79 264.24 427.75 263.37 423.96 262.6 423.78 262.39 419.77 261.28 418.65 260.57 413.87 259.76 413.92 259.61 410.91 258.17 410.78 258.31 406.83 259.17 406.78 259.26 401.98 260.43 401.91 260.37 401.11 261.86 401.15 261.99 400.26 268.57 400.47 268.66 399.04 272.27 399.04 272.18 394.12 283.4 394.07 283.58 413.21 280.84 413.24 281 414.34 282.29 414.84 282.52 416.38 281.14 418.05 280.5 420.75 282.65 423.71 288.78 429.27 295.68 430.64 299.17 430.61 303.27 433.91 303.18 436.3 301.3 437.82 302.01 445.36 305.31 448.21 307.64 448.35 307.69 453.1 312.3 457.86 308.09 458.4 307.61 460.1 309.12 463.09 309.22 464.88 310.51 468.68 310.07 469.67 308.85 470.09 308.08 472.98 303.83 478.71 291.75 482.25 290.32 479.88 286.83 478.11 281.91 469.05 277.31 466.17 277.32 465.6"/>
    <polygon id="Nevada" class="cls-2" points="392.74 447.19 393.06 428.93 394.28 427.07 394.54 424.85 399.02 422.8 400.22 418.5 400.78 417.99 402.54 418.22 404.24 415.14 407.42 412.8 412.75 412.57 413.87 412.61 416.35 410.61 432.6 407.08 436.14 404.42 437.57 402.02 441.24 400.41 445.51 400.25 447.7 401.28 450.46 406.41 452.16 407.5 489.54 407.39 489.59 420.25 438.6 420.3 426.46 430.39 424.77 432.84 421.94 433.75 417.18 438.62 415.53 440.85 415.76 443.13 411.5 449.25 407.32 449.64 404.41 447.48 400.9 448.86 397.47 449.1 392.74 447.19"/>
    <polygon id="Colusa" class="cls-2" points="312.3 457.86 307.69 453.1 307.64 448.35 305.31 448.21 302.01 445.36 301.3 437.82 303.18 436.3 303.27 433.91 299.17 430.61 295.68 430.64 288.78 429.27 282.65 423.71 280.5 420.75 281.14 418.05 282.52 416.38 282.29 414.84 281 414.34 280.84 413.24 283.58 413.21 328.95 412.96 328.98 410.13 338.18 409.91 338.26 413.13 347.37 412.98 346.27 421.13 343.59 426.44 344.34 431.21 343.78 433.4 344.83 436.26 343.62 438.09 346.17 439.68 348.11 444.2 350.81 444.69 352.19 449.77 353.69 451.1 352.57 451.95 352.37 453.24 351.28 453.77 351.07 457.48 312.3 457.86"/>
    <polygon id="Placer" class="cls-2" points="377.46 476.27 377.53 473.99 379 473.92 378.98 457.67 382.95 457.58 382.98 450.72 386.62 449.27 390.4 445.89 392.74 447.19 397.47 449.1 400.9 448.86 404.41 447.48 407.32 449.64 411.5 449.25 415.76 443.13 415.53 440.85 417.18 438.62 421.94 433.75 424.77 432.84 426.46 430.39 438.6 420.3 489.59 420.25 489.57 435.13 489.65 440.24 489.6 444.38 478.96 444.32 478.28 446.63 476.85 446.55 475.78 447.9 472.07 447.85 470.58 448.69 457.51 447.95 454.43 453.91 450.57 457.04 446.8 458.72 439.32 454.56 437.89 452.33 436.05 452.05 434.29 450.53 428.77 450.83 426.1 453.4 425.42 455.23 419.26 455.13 418.92 456.59 415.34 458.54 411.04 459.16 410.01 462.19 409.77 465.98 406.97 469.13 405.44 474.89 403.24 478.54 377.46 476.27"/>
    <polygon id="Sutter" class="cls-2" points="369.12 475.96 369.57 473.35 368.11 471.71 364.47 473.68 362.53 473.21 362.45 470.71 359.68 469.66 359.2 465.43 358.03 463.55 357.21 463.24 355.79 464.14 353.94 463.84 352.96 462.88 352.84 461.44 354.76 459.71 353.6 459.68 353.6 458.81 351.97 458.49 351.07 457.48 351.28 453.77 352.37 453.24 352.57 451.95 353.69 451.1 352.19 449.77 350.81 444.69 348.11 444.2 346.17 439.68 343.62 438.09 344.83 436.26 343.78 433.4 344.34 431.21 343.59 426.44 346.27 421.13 367.53 420.88 367.06 427.79 369.46 440.16 368.75 443.9 370.57 457.36 371.45 457.01 373.33 453.45 379.3 451.19 382.98 450.72 382.95 457.58 378.98 457.67 379 473.92 377.53 473.99 377.46 476.27 369.12 475.96"/>
    <polygon id="El_Dorado" data-name="El Dorado" class="cls-2" points="412.64 498.35 405.4 477.92 404.45 478.75 403.24 478.54 405.44 474.89 406.97 469.13 409.77 465.98 410.01 462.19 411.04 459.16 415.34 458.54 418.92 456.59 419.26 455.13 425.42 455.23 426.1 453.4 428.77 450.83 434.29 450.53 436.05 452.05 437.89 452.33 439.32 454.56 446.8 458.72 450.57 457.04 454.43 453.91 457.51 447.95 470.58 448.69 472.07 447.85 475.78 447.9 476.85 446.55 478.28 446.63 478.96 444.32 489.6 444.38 489.59 451.11 497.58 458.07 497.36 459.62 498.77 460.67 498.74 464.06 496.91 465.3 496.31 467.46 493.1 471.73 484.29 479.85 481.1 480.38 479.03 485 473.5 488.34 471.7 491.24 470.12 491.86 468.02 494.03 464.95 495.14 461.75 494.81 457.15 496.55 454.97 496.41 451.13 498.12 445.25 498.6 440.38 497.77 434.71 494.54 429.76 493.9 428.84 493.15 423.8 495.8 423.23 496.96 421.67 496.89 419.94 497.92 418.53 497.19 412.64 498.35"/>
    <polygon id="Yolo" class="cls-2" points="330.98 498.28 328.83 489.82 327.71 488.08 326.22 487.64 326.61 484.99 324.58 483.57 322.39 479.39 319.67 471.38 317.32 466.98 316.33 466.03 311.33 465.87 309.22 464.88 309.12 463.09 307.61 460.1 308.09 458.4 312.3 457.86 351.07 457.48 351.97 458.49 353.6 458.81 353.6 459.68 354.76 459.71 352.84 461.44 352.96 462.88 353.94 463.84 355.79 464.14 357.21 463.24 358.03 463.55 359.2 465.43 359.68 469.66 362.45 470.71 362.53 473.21 364.47 473.68 368.11 471.71 369.57 473.35 369.12 475.96 366.94 481.32 369.18 484.42 371.53 485.18 372.61 489.11 374.96 488.96 376.04 490.13 375.35 495.28 374.29 496.29 374.61 497.41 372.85 498.5 373.11 500.37 375.73 502.21 375.95 503.07 375.67 504.66 374.34 505.6 375.31 508.21 374.53 512.13 373.45 513.66 371.5 514.5 370.96 516.27 369.86 516.28 362.1 516.08 361.97 496.66 360.34 495.21 354.55 496.5 349.13 495.51 344.45 496.09 342.87 496.44 339.91 499.21 337.25 500.05 333.41 498.02 330.98 498.28"/>
    <polygon id="Napa" class="cls-2" points="317.92 531.59 314.69 527.12 312.95 528.31 316.98 531.6 308.46 531.4 307.91 529.11 310.15 528.07 312.75 527.97 311.61 523.5 310.21 522.19 308.78 516.56 304.69 512.51 304.62 510.55 303.63 509.48 303.35 507.79 302.09 507.42 301.77 503.55 298.77 501.54 297.38 496.85 291.02 491.45 290.52 489.2 292.17 483.23 291.75 482.25 303.83 478.71 308.08 472.98 308.85 470.09 310.07 469.67 310.51 468.68 309.22 464.88 311.33 465.87 316.33 466.03 317.32 466.98 319.67 471.38 322.39 479.39 324.58 483.57 326.61 484.99 326.22 487.64 327.71 488.08 328.83 489.82 330.98 498.28 329.16 506.24 333 511.67 334.24 515 333.43 516.31 323.61 516.44 323.23 518.38 324.32 519.85 322.75 520.89 324.08 521.78 323.38 522.82 324.46 524.68 322.98 529.07 324.3 530.48 324.35 531.52 317.92 531.59"/>
    <polygon id="Sonoma" class="cls-2" points="298.65 532.42 295.93 529.1 290.66 529.66 284.94 527.21 283.49 527.39 271.01 516.76 267.99 517.3 265.71 516.92 263.52 518.36 259.44 518.66 253.96 505.25 240.66 494.3 223.63 474 226.59 472.04 235.74 472.22 235.76 469.23 253.23 469.06 253.41 466.29 257.24 466.26 257.29 464.98 277.32 465.6 277.31 466.17 281.91 469.05 286.83 478.11 290.32 479.88 291.75 482.25 292.17 483.23 290.52 489.2 291.02 491.45 297.38 496.85 298.77 501.54 301.77 503.55 302.09 507.42 303.35 507.79 303.63 509.48 304.62 510.55 304.69 512.51 308.78 516.56 310.21 522.19 311.61 523.5 312.75 527.97 310.15 528.07 307.91 529.11 308.46 531.4 306.14 535.96 301.64 535.99 298.65 532.42"/>
    <polygon id="Sacramento" class="cls-2" points="363.73 530.64 365.27 529 368.78 527.7 369.67 524.22 369 520.5 369.86 516.28 370.96 516.27 371.5 514.5 373.45 513.66 374.53 512.13 375.31 508.21 374.34 505.6 375.67 504.66 375.95 503.07 375.73 502.21 373.11 500.37 372.85 498.5 374.61 497.41 374.29 496.29 375.35 495.28 376.04 490.13 374.96 488.96 372.61 489.11 371.53 485.18 369.18 484.42 366.94 481.32 369.12 475.96 377.46 476.27 403.24 478.54 404.45 478.75 405.4 477.92 412.64 498.35 412.65 518.16 406.89 519.19 401.91 522.53 398.99 523.4 393.75 522.98 389.82 524.89 383.7 524.61 382.06 522.46 378.83 522.43 375.05 528.4 374.16 532.05 372.1 533.7 364.15 537.62 363.73 530.64"/>
    <polygon id="Amador" class="cls-2" points="415.08 525.55 412.65 518.16 412.64 498.35 418.53 497.19 419.94 497.92 421.67 496.89 423.23 496.96 423.8 495.8 428.84 493.15 429.76 493.9 434.71 494.54 440.38 497.77 445.25 498.6 451.13 498.12 454.97 496.41 457.15 496.55 461.75 494.81 464.95 495.14 468.02 494.03 470.12 491.86 471.7 491.24 473.5 488.34 479.03 485 481.1 480.38 484.29 479.85 484.04 498.09 478.46 499.67 473.57 499.44 464.54 502.23 457.09 502.19 452.43 504.36 450.47 506.39 444.19 509.16 443.95 512.09 441.72 514.96 432.55 519.1 429.25 519.54 425.77 522.2 423 525.79 420.9 525.27 415.08 525.55"/>
    <polygon id="Calaveras" class="cls-2" points="440.83 563.55 419.95 539.31 415.08 525.55 420.9 525.27 423 525.79 425.77 522.2 429.25 519.54 432.55 519.1 441.72 514.96 443.95 512.09 444.19 509.16 450.47 506.39 452.43 504.36 457.09 502.19 464.54 502.23 473.57 499.44 478.46 499.67 484.04 498.09 483.85 504.51 485.47 503.85 488.09 505.38 486.45 506.87 484.91 506.97 483.44 508.19 480.89 508.75 477.94 510.42 465 527.66 464.07 530.09 459.05 537.56 458.33 539.76 455.3 543.69 454.77 545.92 450.16 547.69 449.74 549.22 451.19 551.43 449.81 552.34 448.93 554.59 446.44 557.54 444.36 558.35 442.17 560.86 440.83 563.55"/>
    <polygon id="Toulumne" class="cls-2" points="544.96 572.77 542.65 571.66 541.85 569.04 537.3 562.75 535.27 562.63 532.93 560.35 528.52 559.73 524.27 557.02 522.59 556.81 520.43 559.6 516.71 561.9 515.71 565.35 510.23 567.4 507.83 569.46 504.75 570.37 499.67 569.35 497.49 569.89 495.11 569.45 484.7 564.23 483.75 564.43 480.52 567.74 475.47 567.82 474.74 569.62 471.74 570.36 470.94 571.56 467.97 571.79 467.43 572.58 464.16 573.3 463.66 574.01 465.69 576.88 466.09 579.5 464.97 580.01 463.05 577.96 460.76 577.61 460.09 578.45 461.07 580.06 459.94 581.65 440.83 563.55 442.17 560.86 444.36 558.35 446.44 557.54 448.93 554.59 449.81 552.34 451.19 551.43 449.74 549.22 450.16 547.69 454.77 545.92 455.3 543.69 458.33 539.76 459.05 537.56 464.07 530.09 465 527.66 477.94 510.42 480.89 508.75 483.44 508.19 484.91 506.97 486.45 506.87 488.09 505.38 499.16 512.46 501.35 511.7 505.1 508.36 508.82 506.73 511.17 506.84 512.59 508.45 513.13 511.88 515.22 513.92 517.27 514.43 516.22 519.47 516.7 520.93 518.38 522.45 518.75 524.79 517.87 526.42 518.12 528.85 521.52 529.15 522.72 532.51 526.16 533.99 526.99 532.14 527.61 532.25 528.33 534.37 531.16 537.9 531.74 538.1 533.15 536.5 539.27 539.74 540.64 541.61 541.38 544.98 540.71 548.08 541.24 551.53 542.69 553.49 547.6 556.4 549.09 558.06 548.45 560.76 550.38 562.53 549.14 563.86 550 566.82 547.12 569.22 544.96 572.77"/>
    <polygon id="Marin" class="cls-2" points="298.65 532.42 302.72 538.67 300.32 545.07 305.19 548.48 301.56 553.37 303.95 562.69 299.62 563.84 288.26 555.75 286.36 556.94 276.52 546.12 269.06 543.92 266.39 547.73 262.31 547.38 267.7 532.17 263.52 518.36 265.71 516.92 267.99 517.3 271.01 516.76 283.49 527.39 284.94 527.21 290.66 529.66 295.93 529.1 298.65 532.42"/>
    <polygon id="San_Joaquin" data-name="San Joaquin" class="cls-2" points="378.28 596.63 378.25 595.03 376.85 594.11 376.43 592.66 373.68 592.06 372.44 590.91 372.63 565.01 373.88 562.58 370.95 559.33 372.24 552.47 370.64 548.6 371.02 546.32 371.99 545.36 371.59 543.65 370.81 543.81 370.94 540.76 372.6 540.78 370.69 535.96 372.1 533.7 374.16 532.05 375.05 528.4 378.83 522.43 382.06 522.46 383.7 524.61 389.82 524.89 393.75 522.98 398.99 523.4 401.91 522.53 406.89 519.19 412.65 518.16 415.08 525.55 419.95 539.31 419.94 571.63 417.76 571.94 414.96 570.11 412 571.83 409.73 571.06 409.01 571.83 406.6 571.93 405.42 573.02 402.48 573.97 400.93 575.72 400.85 576.76 398.68 576.33 398 576.88 397.59 578.54 396.04 579 378.28 596.63"/>
    <path id="Solano" class="cls-3" d="M308.46,531.4l9.47,6.12-.95-5.93Zm61.4-15.12-7.76-.2L362,496.66l-1.63-1.45-5.79,1.29-5.42-1-4.68.58-1.58.35-3,2.77-2.66.84-3.84-2-2.43.26-1.82,8,3.84,5.43,1.24,3.33-.81,1.31-9.83.13-.37,1.94,1.1,1.47-1.58,1,1.33.89-.7,1,1.08,1.86L323,529.07l1.32,1.4.05,1-6.43.06,3.07,8.47,18.67-6.56,6.16,6.38,9.08.59,8.83-9.82,1.54-1.64,3.51-1.3.89-3.49L369,520.5Z"/>
    <polygon id="Stanislaus" class="cls-2" points="378.28 596.63 396.04 579 397.59 578.54 398 576.88 398.68 576.33 400.85 576.76 400.93 575.72 402.48 573.97 405.42 573.02 406.6 571.93 409.01 571.83 409.73 571.06 412 571.83 414.96 570.11 417.76 571.94 419.94 571.63 419.95 539.31 440.83 563.55 459.94 581.65 460.16 582.81 415.9 604.59 415.5 605.42 416.29 606.64 416.88 610.27 397.83 629.29 393.6 625.4 390.51 626.44 387.35 625.03 385.91 625.91 386.03 627.63 384.13 627.02 383.35 623.28 382.53 621.69 380.18 619.91 379.98 618.54 380.36 614.53 381.94 613.85 383.18 612.25 382.09 608.64 382.81 606.33 382.15 605.32 379.52 604.2 378.66 602.73 379.3 599.55 378.13 598.01 378.28 596.63"/>
    <polygon id="Alameda" class="cls-2" points="378.28 596.63 349.14 596.75 344.94 598.42 340.35 598.24 331.48 594.77 323.44 572.13 314.94 568.01 315.31 557.2 318.73 556.45 319.77 556.91 324.3 561.48 325.93 564.68 327.29 564.65 330.55 566.34 335.66 566.64 338.77 568.94 338.45 571.12 340.28 572.54 340.85 574.15 370.95 565.57 372.13 564.65 372.63 565.01 372.44 590.91 373.68 592.06 376.43 592.66 376.85 594.11 378.25 595.03 378.28 596.63"/>
    <polygon id="Mariposa" class="cls-2" points="486.76 624.66 484.13 621.61 478.34 620.42 476.95 619.14 475.6 614.24 470.26 606.21 468.93 601.65 469.39 599.87 466.02 594.86 460.16 582.81 459.94 581.65 461.07 580.06 460.09 578.45 460.76 577.61 463.05 577.96 464.97 580.01 466.09 579.5 465.69 576.88 463.66 574.01 464.16 573.3 467.43 572.58 467.97 571.79 470.94 571.56 471.74 570.36 474.74 569.62 475.47 567.82 480.52 567.74 483.75 564.43 484.7 564.23 495.11 569.45 497.49 569.89 499.67 569.35 504.75 570.37 507.83 569.46 510.23 567.4 515.71 565.35 516.71 561.9 520.43 559.6 522.59 556.81 524.27 557.02 528.52 559.73 532.93 560.35 535.27 562.63 537.3 562.75 541.85 569.04 521.51 589.37 521.38 595.67 518.54 595.87 518.53 598.5 516.48 598.73 515.94 603.05 508.17 603.05 486.76 624.66"/>
    <path id="Contra_Costa" data-name="Contra Costa" class="cls-3" d="M371,559.33l1.29-6.86-1.59-3.87.37-2.28,1-1-.4-1.71-.78.16.13-3-.56-2.92-6.09.77-3.11,6-22.73-3.22-22.23,4-6.35,4,.62,6.13,4.82,1.67,3.42-.74,1,.46,4.53,4.57,1.63,3.2,1.36,0,3.25,1.69,5.12.3,3.11,2.3-.32,2.18,1.83,1.42.57,1.61,30.1-8.58,1.18-.92.5.37,1.25-2.44Zm-70,8.25v7.88l9.94-.21,1.5-2.17-4.11-8Z"/>
    <polygon id="Madera" class="cls-2" points="449.54 638.02 454.61 632.86 455.46 633.43 464.55 631.01 470.84 627.88 478.08 626.83 480.79 627.21 485.29 626.21 486.76 624.66 508.17 603.05 515.94 603.05 516.48 598.73 518.53 598.5 518.54 595.87 521.38 595.67 521.51 589.37 541.85 569.04 542.65 571.66 544.96 572.77 548.07 574.21 550.62 572.43 556.38 573.03 560.44 578.17 560.71 580.58 563.31 587.43 543.54 607.76 541.43 609.15 539.83 613.27 541.08 622.94 540.58 624.2 538.45 625.88 538.52 626.87 536.51 628.29 535.42 628.18 534.87 627.25 533.44 627.38 533.12 628.8 531.48 629.14 530.28 631.7 529.59 631.55 528.07 628.58 526.95 628.83 526.94 630.11 526.16 630.35 524.25 628.94 523.73 629.17 523.54 631.79 525.43 632.3 525.45 632.98 523.74 634.23 523.85 635.21 522.4 636.23 520.95 635.63 519.06 639.41 518.58 639.55 517.89 638.2 516.49 639.39 515.89 641.12 510.62 643.79 509.3 649.22 507.77 650.37 506.43 653.49 504.21 655.95 502.37 655.45 500.35 655.85 499.37 655.28 495.19 657.54 491.25 657.4 487.97 659.26 483.87 658.7 479.48 660.76 477.45 661.04 476.56 662.91 475.64 662.77 475.09 661.63 473.2 662.34 473.11 663.32 471.54 663.03 468.82 664.58 464.54 661.26 464.37 662.42 462.75 662.01 462.97 661.02 461.97 659.56 456.71 655.6 455.73 652.47 456.32 650.87 455.93 648.62 452.78 643.25 451.62 642.44 449.54 638.02"/>
    <polygon id="San_Mateo" data-name="San Mateo" class="cls-2" points="310.88 575.25 311.38 584.07 331.76 599.02 330.6 599.47 327.19 598.79 324.51 601.69 325.13 612.21 326.58 613.08 327.67 615.34 327.2 621.98 321.45 622.04 321.4 624.27 315.83 624.53 316.28 627.9 317.79 631.77 307.24 619.25 309.15 608.52 305.22 596.46 300.38 592.34 300.94 575.46 310.88 575.25"/>
    <polygon id="Merced" class="cls-2" points="398.36 646.06 396.53 643.06 397.23 642.17 396.92 639.06 398.2 637.72 398.89 635.55 396.97 633.49 397.95 632.03 398.37 629.82 397.83 629.29 416.88 610.27 416.29 606.64 415.5 605.42 415.9 604.59 460.16 582.81 466.02 594.86 469.39 599.87 468.93 601.65 470.26 606.21 475.6 614.24 476.95 619.14 478.34 620.42 484.13 621.61 486.76 624.66 485.29 626.21 480.79 627.21 478.08 626.83 470.84 627.88 464.55 631.01 455.46 633.43 454.61 632.86 449.54 638.02 420.98 666.49 419.4 664.88 404.24 657.1 404.03 655.4 401.18 650.86 397.73 649.43 397.41 648.12 398.36 646.06"/>
    <polygon id="Fresno" class="cls-2" points="439.22 709.61 439.02 707.62 439.87 706.4 445.39 704.28 445.42 690.46 420.98 666.49 449.54 638.02 451.62 642.44 452.78 643.25 455.93 648.62 456.32 650.87 455.73 652.47 456.71 655.6 461.97 659.56 462.97 661.02 462.75 662.01 464.37 662.42 464.54 661.26 468.82 664.58 471.54 663.03 473.11 663.32 473.2 662.34 475.09 661.63 475.64 662.77 476.56 662.91 477.45 661.04 479.48 660.76 483.87 658.7 487.97 659.26 491.25 657.4 495.19 657.54 499.37 655.28 500.35 655.85 502.37 655.45 504.21 655.95 506.43 653.49 507.77 650.37 509.3 649.22 510.62 643.79 515.89 641.12 516.49 639.39 517.89 638.2 518.58 639.55 519.06 639.41 520.95 635.63 522.4 636.23 523.85 635.21 523.74 634.23 525.45 632.98 525.43 632.3 523.54 631.79 523.73 629.17 524.25 628.94 526.16 630.35 526.94 630.11 526.95 628.83 528.07 628.58 529.59 631.55 530.28 631.7 531.48 629.14 533.12 628.8 533.44 627.38 534.87 627.25 535.42 628.18 536.51 628.29 538.52 626.87 538.45 625.88 540.58 624.2 541.08 622.94 539.83 613.27 541.43 609.15 543.54 607.76 563.31 587.43 571.63 591.87 573.12 593.96 574.74 594.4 575.26 596.28 576.41 597.04 579.56 596.72 581.87 598.96 582.7 600.97 580.77 605.39 582.13 608.07 581.61 610.36 583.9 611.87 587.01 612.58 590.08 618.11 589.92 619.19 588.68 620.2 589.54 622.2 589.54 624.43 590.61 625.91 590.62 628.87 594.37 629.58 607.23 636.83 609.21 643.91 612.54 651.94 613.17 656.63 610.8 657.78 612.51 665.05 613.79 666.4 599.38 666.44 599.21 666.96 566.39 666.62 566.04 674.6 541.96 674.49 541.98 682.37 530.78 682.26 522.57 689.92 516.01 696.05 514.69 694.94 513.98 695.77 509.4 696.96 508.43 697.88 493.47 697.77 493.12 718.06 466.98 743.7 465.76 743.03 463.35 739.14 460.52 737.84 457.69 737.86 452.1 732.69 450.39 732.96 446.2 728.88 445.5 726.28 442.91 725.91 441.2 723.95 440.12 720.43 441.08 719.8 442.83 716.17 439.67 713.32 439.22 709.61"/>
    <polygon id="Santa_Clara" data-name="Santa Clara" class="cls-2" points="398.36 646.06 383.62 645.74 381.21 643.49 378.48 643.75 377.01 644.67 376.32 647.57 373.64 649.62 372.46 652.25 370.99 652.32 370.69 650.66 367.24 649.29 364.85 645.89 363.11 644.99 361.73 641.59 357.91 637.58 350.7 632.74 338.85 627 334.81 621.54 332.36 621.45 331.16 618.64 327.67 615.34 326.58 613.08 325.13 612.21 324.51 601.69 327.19 598.79 330.6 599.47 331.76 599.02 340.35 598.24 344.94 598.42 349.14 596.75 378.28 596.63 378.13 598.01 379.3 599.55 378.66 602.73 379.52 604.2 382.15 605.32 382.81 606.33 382.09 608.64 383.18 612.25 381.94 613.85 380.36 614.53 379.98 618.54 380.18 619.91 382.53 621.69 383.35 623.28 384.13 627.02 386.03 627.63 385.91 625.91 387.35 625.03 390.51 626.44 393.6 625.4 397.83 629.29 398.37 629.82 397.95 632.03 396.97 633.49 398.89 635.55 398.2 637.72 396.92 639.06 397.23 642.17 396.53 643.06 398.36 646.06"/>
    <polygon id="Santa_Cruz" data-name="Santa Cruz" class="cls-2" points="354.19 655.97 347.27 645.43 333.87 646.81 325.42 641.77 317.79 631.77 316.28 627.9 315.83 624.53 321.4 624.27 321.45 622.04 327.2 621.98 327.67 615.34 331.16 618.64 332.36 621.45 334.81 621.54 338.85 627 350.7 632.74 357.91 637.58 361.73 641.59 363.11 644.99 364.85 645.89 367.24 649.29 370.69 650.66 370.99 652.32 370.21 651.5 367.53 650.81 366.62 651.67 365.5 650.27 359.94 650.15 358.49 650.74 357.08 652.77 355.37 653.33 354.19 655.97"/>
    <polygon id="San_Benito" data-name="San Benito" class="cls-2" points="439.22 709.61 434.88 706.5 433.36 706.22 435.79 709.91 437.54 714.93 437.21 716.38 433.95 716.64 430.41 714.19 426.98 709.1 422.51 707.29 420.55 707.71 419.45 709.32 416.75 708.63 416.7 709.48 414.52 710.75 413.65 709.73 412.49 709.65 411.19 704.4 399.74 693.2 396.82 688.77 391.53 688.33 391.55 685.9 389.74 682.14 390.08 678.34 388.52 675.42 387.26 674.37 384.96 674.26 382.93 672.65 381.12 672.65 379.04 670.91 378.43 668.93 380.1 668.68 380.34 668.12 379.33 664.28 376.28 663.99 371.37 659.27 366.73 654.02 366.62 651.67 367.53 650.81 370.21 651.5 370.99 652.32 372.46 652.25 373.64 649.62 376.32 647.57 377.01 644.67 378.48 643.75 381.21 643.49 383.62 645.74 398.36 646.06 397.41 648.12 397.73 649.43 401.18 650.86 404.03 655.4 404.24 657.1 419.4 664.88 420.98 666.49 445.42 690.46 445.39 704.28 439.87 706.4 439.02 707.62 439.22 709.61"/>
    <polygon id="Monterey" class="cls-2" points="474.22 754.86 389.06 754.13 380.28 746.81 361.87 718.73 347.37 706.97 341.86 681.13 345.17 675.71 348.49 678.78 352.92 674.98 356.48 658.92 354.19 655.97 355.37 653.33 357.08 652.77 358.49 650.74 359.94 650.15 365.5 650.27 366.62 651.67 366.73 654.02 371.37 659.27 376.28 663.99 379.33 664.28 380.34 668.12 380.1 668.68 378.43 668.93 379.04 670.91 381.12 672.65 382.93 672.65 384.96 674.26 387.26 674.37 388.52 675.42 390.08 678.34 389.74 682.14 391.55 685.9 391.53 688.33 396.82 688.77 399.74 693.2 411.19 704.4 412.49 709.65 413.65 709.73 414.52 710.75 416.7 709.48 416.75 708.63 419.45 709.32 420.55 707.71 422.51 707.29 426.98 709.1 430.41 714.19 433.95 716.64 437.21 716.38 437.54 714.93 435.79 709.91 433.36 706.22 434.88 706.5 439.22 709.61 439.67 713.32 442.83 716.17 441.08 719.8 440.12 720.43 441.2 723.95 442.91 725.91 445.5 726.28 446.2 728.88 450.39 732.96 452.1 732.69 457.69 737.86 460.52 737.84 463.35 739.14 465.76 743.03 466.98 743.7 469.67 744.5 471.44 746.3 471.29 750.61 473.88 752.3 474.22 754.86"/>
    <polygon id="Kings" class="cls-2" points="524.68 754.88 474.99 754.75 474.22 754.86 473.88 752.3 471.29 750.61 471.44 746.3 469.67 744.5 466.98 743.7 493.12 718.06 493.47 697.77 508.43 697.88 509.4 696.96 513.98 695.77 514.69 694.94 516.01 696.05 522.57 689.92 525.64 690.05 525.85 698.04 529.78 698.19 530.01 710.2 525.49 710.23 524.68 754.88"/>
    <polygon id="San_Luis_Obispo" data-name="San Luis Obispo" class="cls-2" points="440.67 830.72 442.75 821.32 441.12 815.31 424.31 808.93 422.64 804.3 425.17 794.59 423.27 788.74 414.47 786.08 402.82 770.08 393.49 766.9 389.06 754.13 474.22 754.86 474.99 754.75 475.62 770.93 483.39 771.05 483.74 779.04 484.85 779.17 484.97 780.38 486.21 780.51 486.46 782.86 487.48 782.87 487.65 784.17 488.81 784.3 488.89 785.56 489.92 785.74 490.15 787.87 498.17 788.13 498.87 795.96 503.47 796.04 503.75 804.12 514.37 804.16 514.29 811.91 522.39 811.77 522.22 819.56 527.56 819.67 527.81 820.96 528.74 821.07 529.09 837.48 528.08 837.46 527.97 838.42 525.4 838.45 518.03 833.51 514.48 831.81 504.97 829.37 499.11 824.61 496.62 824.85 494.62 823.03 490.02 822.33 484.95 820.02 482.97 817.74 478.3 820.28 476.45 821.97 475.78 824.5 473.87 825.78 471.35 826.24 469.73 825.83 467.94 826.94 464.65 827.14 464.79 828.76 465.79 829.44 467.56 832.93 467.68 836.43 466.79 837.42 461.61 832.05 455.7 829 453.34 829.17 446.73 831.29 443.52 831.45 441.7 832.52 440.67 830.72"/>
    <polygon id="Alpine" class="cls-2" points="488.09 505.38 485.47 503.85 483.85 504.51 484.04 498.09 484.29 479.85 493.1 471.73 496.31 467.46 496.91 465.3 498.74 464.06 498.77 460.67 497.36 459.62 497.58 458.07 521.22 479.29 518.84 483.21 518.21 487.77 522.83 497.7 523.4 500.53 522.7 502.6 522.73 506.96 522.19 508.11 518.45 509.03 518.67 512.12 517.27 514.43 515.22 513.92 513.13 511.88 512.59 508.45 511.17 506.84 508.82 506.73 505.1 508.36 501.35 511.7 499.16 512.46 488.09 505.38"/>
    <polygon id="Mono" class="cls-2" points="652.14 598.57 581.87 598.96 579.56 596.72 576.41 597.04 575.26 596.28 574.74 594.4 573.12 593.96 571.63 591.87 563.31 587.43 560.71 580.58 560.44 578.17 556.38 573.03 550.62 572.43 548.07 574.21 544.96 572.77 547.12 569.22 550 566.82 549.14 563.86 550.38 562.53 548.45 560.76 549.09 558.06 547.6 556.4 542.69 553.49 541.24 551.53 540.71 548.08 541.38 544.98 540.64 541.61 539.27 539.74 533.15 536.5 531.74 538.1 531.16 537.9 528.33 534.37 527.61 532.25 526.99 532.14 526.16 533.99 522.72 532.51 521.52 529.15 518.12 528.85 517.87 526.42 518.75 524.79 518.38 522.45 516.7 520.93 516.22 519.47 517.27 514.43 518.67 512.12 518.45 509.03 522.19 508.11 522.73 506.96 522.7 502.6 523.4 500.53 522.83 497.7 518.21 487.77 518.84 483.21 521.22 479.29 540.58 496.25 553.12 507.35 608.52 557.68 652.14 598.57"/>
    <polygon id="Inyo" class="cls-2" points="639.41 754.46 639.95 748.89 641.69 747.6 641.61 743.72 640.25 740.23 639.03 739.06 639.56 736.48 637.08 733.25 635.43 727.38 635.04 722.9 635.71 721.37 635.56 719.51 632.43 716.83 631.68 711.5 630.54 709.44 632.14 703.39 628.52 698.98 629.75 698.03 629.48 696.29 628.56 695.58 625.11 695.45 624.05 693.17 622.39 691.92 622.51 687.71 618.51 682.57 619.56 680.08 616.49 676.8 615.23 673.46 613.65 672.07 615.82 669.1 613.79 666.4 612.51 665.05 610.8 657.78 613.17 656.63 612.54 651.94 609.21 643.91 607.23 636.83 594.37 629.58 590.62 628.87 590.61 625.91 589.54 624.43 589.54 622.2 588.68 620.2 589.92 619.19 590.08 618.11 587.01 612.58 583.9 611.87 581.61 610.36 582.13 608.07 580.77 605.39 582.7 600.97 581.87 598.96 652.14 598.57 703.26 645.67 799.33 735.51 818.9 754.63 744.95 754.54 666.95 753.7 645.18 753.77 645.27 754.4 639.41 754.46"/>
    <polygon id="Tulare" class="cls-2" points="524.68 754.88 525.49 710.23 530.01 710.2 529.78 698.19 525.85 698.04 525.64 690.05 522.57 689.92 530.78 682.26 541.98 682.37 541.96 674.49 566.04 674.6 566.39 666.62 599.21 666.96 599.38 666.44 613.79 666.4 615.82 669.1 613.65 672.07 615.23 673.46 616.49 676.8 619.56 680.08 618.51 682.57 622.51 687.71 622.39 691.92 624.05 693.17 625.11 695.45 628.56 695.58 629.48 696.29 629.75 698.03 628.52 698.98 632.14 703.39 630.54 709.44 631.68 711.5 632.43 716.83 635.56 719.51 635.71 721.37 635.04 722.9 635.43 727.38 637.08 733.25 639.56 736.48 639.03 739.06 640.25 740.23 641.61 743.72 641.69 747.6 639.95 748.89 639.41 754.46 524.68 754.88"/>
    <polygon id="Kern" class="cls-2" points="665.19 844.4 572.81 845.21 569.01 845.16 569.03 845.78 546.39 845.27 546.3 841.44 543.93 841.33 543.78 840.29 536.26 840.09 536.02 837.55 531.42 837.63 529.09 837.48 528.74 821.07 527.81 820.96 527.56 819.67 522.22 819.56 522.39 811.77 514.29 811.91 514.37 804.16 503.75 804.12 503.47 796.04 498.87 795.96 498.17 788.13 490.15 787.87 489.92 785.74 488.89 785.56 488.81 784.3 487.65 784.17 487.48 782.87 486.46 782.86 486.21 780.51 484.97 780.38 484.85 779.17 483.74 779.04 483.39 771.05 475.62 770.93 474.99 754.75 524.68 754.88 639.41 754.46 645.27 754.4 645.18 753.77 666.95 753.7 667.09 762.88 664.95 763.06 665.1 765.88 668.43 765.9 668.44 767.59 667.25 767.72 667.89 819.15 666.87 819.12 667.26 844.34 665.19 844.4"/>
    <polygon id="San_Bernardino" data-name="San Bernardino" class="cls-2" points="656.32 924.14 655.46 921.05 658.02 917.6 660.65 917.74 663.47 908.83 667.13 893.56 665.91 868.33 665.27 868.29 665.19 844.4 667.26 844.34 666.87 819.12 667.89 819.15 667.25 767.72 668.44 767.59 668.43 765.9 665.1 765.88 664.95 763.06 667.09 762.88 666.95 753.7 744.95 754.54 818.9 754.63 894.66 828.3 893.81 828.42 894.66 833.39 893.95 835.61 894.19 839.65 898.49 843.66 900.61 850.26 901.86 851.27 903.95 851.65 906.37 854.85 909.64 863.92 908.73 865.02 910.59 866.41 913.07 870.73 912.54 876.17 913.09 877.76 916.4 878.2 918.64 879.95 920.11 882.11 922.03 882.71 927.74 886.39 929.9 889.02 931.36 891.01 932.03 894.84 930.17 895.35 923.7 902.72 919.96 904.08 917.14 906.81 910.55 910.33 909.51 912.54 842.57 912.58 842.55 915.97 792.74 916.63 721.01 916.5 721.05 919.15 698.5 919 698.54 918.01 687.34 917.8 687.25 916.52 673.55 916.62 673.53 920.38 669.7 922.1 669.52 926.15 666.1 926.34 665.95 928.24 664.03 928.38 664.29 930.48 656.32 924.14"/>
    <polygon id="Ventura" class="cls-2" points="572.81 845.21 588.26 882.53 592.26 893.21 592.54 897.35 589.57 897.23 589.48 903.82 580.27 903.86 569.34 912.02 569.18 916.02 548.3 906.35 544.5 897.99 528.2 885.51 530.72 883.56 530.49 881.07 531.74 879.22 531.42 837.63 536.02 837.55 536.26 840.09 543.78 840.29 543.93 841.33 546.3 841.44 546.39 845.27 569.03 845.78 569.01 845.16 572.81 845.21"/>
    <polygon id="Riverside" class="cls-2" points="784.51 971.69 713.05 971.56 713.01 970.9 697.5 970.97 697.46 969.94 687.74 965.78 688.02 964.05 676.99 964.22 676.85 961.67 684.35 950.53 679.34 946.27 675.31 945.92 675.2 941.79 672.53 941.03 664.29 930.48 664.03 928.38 665.95 928.24 666.1 926.34 669.52 926.15 669.7 922.1 673.53 920.38 673.55 916.62 687.25 916.52 687.34 917.8 698.54 918.01 698.5 919 721.05 919.15 721.01 916.5 792.74 916.63 842.55 915.97 842.57 912.58 909.51 912.54 909.13 916.95 902.41 922.84 901.85 923.99 903.92 926.48 902.2 932.12 902.9 934.02 902.19 935.47 903.44 940.39 903.01 942.98 904.11 946.13 901.04 948.46 901.88 950.02 901.73 953.94 900.75 957.71 901.57 959.56 897.22 964.14 896.39 966.24 894.65 967.83 893.94 970.46 861.05 971.35 784.51 971.69"/>
    <path id="Santa_Barbara" data-name="Santa Barbara" class="cls-3" d="M471.26,918.68l5.36,7.88,4.39,2.66,11-4.81-6.29-8.48Zm-6-2.66-.9-.65-.41-.13-.67.2-.86-.06-.35-.54.33-.5-.2-.58-.24-.61-.52-.42v.45l-.84,1-1,.69-.71.17-.89-.28-1.71,1.45-.85.24.23.52.6.06,1.09.42.64-.69.68.1,1,.49.79.17.64.58,1,.27.69-.38,1.63,0,1.61,0,.13-.75-.36-.73Zm49,1.7-15.07-4.9-4.51,1.46,4,2.49-1.13,2.47,3.15,3.3,10.15.28L524,919.07l1.23-2.55-3.73-1.93Zm17.47-38.5-.32-41.59-2.33-.15-1,0-.1,1-2.57,0L518,833.51l-3.55-1.7L505,829.37l-5.86-4.76-2.49.24-2-1.82-4.6-.7L485,820l-2-2.28-4.67,2.54L476.45,822l-.67,2.53-1.91,1.28-2.52.46-1.62-.41-1.79,1.11-3.29.2.14,1.62,1,.68,1.77,3.49.12,3.5-.89,1-5.18-5.37-5.91-3-2.36.17-6.61,2.12-3.21.16-1.82,1.07-1-1.8L439,837.05l4.36,4.43-1.77,8.78,2.26,5.13-3,12.06,9.94,4.67,4,7.21,23.82-2.69,9.7.94,10.71,5.19,19.83-1.06,9.29,3.8,2.52-2-.23-2.49Z"/>
    <polygon id="Orange" class="cls-2" points="676.99 964.22 676.95 966.03 675.6 968.05 671.7 968.57 670.33 974.52 631.94 942.58 633.36 941.24 633.07 938.36 635.05 936.89 636.79 932.13 639.03 930.5 640.57 930.27 640.72 928.91 642.12 927.49 642.22 924.68 656.32 924.14 664.29 930.48 672.53 941.03 675.2 941.79 675.31 945.92 679.34 946.27 684.35 950.53 676.85 961.67 676.99 964.22"/>
    <polygon id="San_Diego" data-name="San Diego" class="cls-2" points="705.7 1051.66 700.29 1035.32 706.26 1045.66 705.97 1038.86 700.37 1033.48 696.64 1038.75 693.85 1023.41 696.14 1020.1 690.6 1000.03 684.44 988.99 670.33 974.52 671.7 968.57 675.6 968.05 676.95 966.03 676.99 964.22 688.02 964.05 687.74 965.78 697.46 969.94 697.5 970.97 713.01 970.9 713.05 971.56 784.51 971.69 784.58 1003.35 782.88 1003.46 782.66 1044.18 705.7 1051.66"/>
    <path id="Los_Angeles" data-name="Los Angeles" class="cls-3" d="M531.19,988.26l-1.42-1.3-1.53-.63-.46-.33-.7.1-1.16-.93-1.42-.89-.81.55h-.58l-.89.75-1.17-.68-.08.29.47,1-.11.54.54.57v.45l1.71,1.46,1.57.3.62.53,1,.11.54.32.33-.13.29.08,1.07.23.33-.09.9,0,.74-.3.58-.05.36-.37v-.66Zm65.72,18.56-2.12,1.34,6.62,11.59,6.91,7.71,5.21-1.17-14.37-15.1Zm69-138.49-.64,0-.08-23.89-92.38.81,15.45,37.32,4,10.67.28,4.15-3-.12-.1,6.59-9.2,0L569.34,912l-.16,4,11.4,2,18.56-1.72,9.78,14,1.8,6.41-3.07,3.34,1.8,3.36,8.91,3.13,3-6.35,10.55,2.39,1.42-1.34-.29-2.88,2-1.47,1.74-4.76L639,930.5l1.54-.23.15-1.36,1.4-1.42.1-2.81,14.1-.54-.86-3.09L658,917.6l2.63.14,2.82-8.91,3.66-15.27Zm-70.76,98.39,2.89,4.19,5.66,1.35,2,8.55,11.4,1.56.72-2.43L612.67,973Z"/>
    <polygon id="Imperial" class="cls-2" points="782.66 1044.18 782.88 1003.46 784.58 1003.35 784.51 971.69 861.05 971.35 893.94 970.46 892.85 972.3 886.83 973.02 888.44 978.32 886.04 982.53 890.39 985.93 889.63 988.52 890.21 989.84 890.36 995.01 887.99 999.05 887.85 1001.48 891.42 1006.55 892.84 1006.06 893.68 1007.04 895.5 1007.63 899.33 1006.75 902.23 1007.56 906.16 1012.05 905.56 1015.81 906.69 1023.93 901.81 1027.12 901.14 1029.08 901.51 1030.57 900.53 1030.59 900.54 1031.53 899.14 1031.53 899.2 1032.59 898.34 1032.6 898.36 1033.62 895.98 1033.75 895.95 1034.62 889.16 1033.26 887.75 1033.83 887.05 1035.1 782.66 1044.18"/>
  </g>
</svg>
